<svg viewBox="0 0 70 70" xmlns="http://www.w3.org/2000/svg" xmlns:xlink="http://www.w3.org/1999/xlink">
    <style>:root&gt;svg{display:none}:root&gt;svg:target{display:block}</style>
    <svg fill="none" viewBox="0 0 32 32" id="ex-icon-cart" xmlns="http://www.w3.org/2000/svg">
        <path d="M24 8h-2a6 6 0 0 0-12 0H8a3 3 0 0 0-3 3v14a5.006 5.006 0 0 0 5 5h12a5.006 5.006 0 0 0 5-5V11a3 3 0 0 0-3-3zm-8-4a4 4 0 0 1 4 4h-8a4 4 0 0 1 4-4zm9 21a3 3 0 0 1-3 3H10a3 3 0 0 1-3-3V11a1 1 0 0 1 1-1h2v2a1 1 0 0 0 2 0v-2h8v2a1 1 0 0 0 2 0v-2h2a1 1 0 0 1 1 1z" fill="#000000" opacity="1" />
    </svg>
    <svg fill="none" viewBox="0 0 12 12" id="ex-icon-check" xmlns="http://www.w3.org/2000/svg">
        <path d='M1 6l2.272 2.651a1 1 0 0 0 1.49.032L11 2' stroke='#ffffff' stroke-width='1.5' stroke-linecap='round'/>
    </svg>
    <svg fill="none" viewBox="0 0 40 40" id="ex-icon-times" xmlns="http://www.w3.org/2000/svg">
        <path d="M32.4724 7.53588L7.54456 32.4637" stroke="#000000" stroke-width="4" stroke-linecap="round"/>
        <path d="M7.5443 7.53637L32.4722 32.4642" stroke="#000000" stroke-width="4" stroke-linecap="round"/>
    </svg>
    <svg fill="none" viewBox="0 0 19 19" id="ex-icon-plus" xmlns="http://www.w3.org/2000/svg">
        <path d="M16.5 10.853C17.1901 10.853 17.75 10.2932 17.75 9.60303C17.75 8.91289 17.1901 8.35303 16.5 8.35303H10.75V2.60303C10.75 1.91288 10.1901 1.35303 9.5 1.35303C8.80986 1.35303 8.25 1.91288 8.25 2.60303V8.35303H2.5C1.80986 8.35303 1.25 8.91289 1.25 9.60303C1.25 10.2932 1.80986 10.853 2.5 10.853H8.25V16.603C8.25 17.2932 8.80986 17.853 9.5 17.853C10.1901 17.853 10.75 17.2932 10.75 16.603V10.853H16.5Z" fill="#ffffff" stroke="#ffffff"/>
    </svg>
</svg>