<svg width="121" height="11" viewBox="0 0 121 11" fill="none" xmlns="http://www.w3.org/2000/svg">
<line x1="15.5" y1="1.5" x2="15.5" y2="10.5" stroke="black" stroke-opacity="0.28" stroke-linecap="round"/>
<path fill-rule="evenodd" clip-rule="evenodd" d="M6.66142 3.46193C7.06512 2.99085 7.54003 2.58623 8.06937 2.26379L8.42714 2.04585C8.60165 1.93955 8.8282 2.0261 8.89037 2.22285L9.05146 2.73261C9.35104 3.68061 9.5065 4.66932 9.5126 5.66466C9.78289 6.07697 10 6.44577 10 7.05674C10 9.05659 8.15775 10.6292 5.87081 10.9454L5.85216 10.9479L5 11L4.14784 10.9479L4.12919 10.9454C1.84225 10.6292 0 9.05659 0 7.05674C0 6.49489 0.253841 6.06431 0.491881 5.67247C0.500148 4.66469 0.657575 3.66374 0.959021 2.70319L1.10903 2.22517C1.17116 2.0272 1.39896 1.9399 1.57444 2.0468L2.07475 2.35155C2.57271 2.65488 3.01679 3.03988 3.38927 3.49022C3.42323 3.47527 3.4564 3.46055 3.48891 3.44613C3.6843 3.35948 3.85567 3.28347 4.02936 3.22919C4.29411 3.14645 4.57219 3.10863 5 3.10863C5.75457 3.10863 6.13203 3.24302 6.66142 3.46193Z" fill="black"/>
<path d="M20.8401 9.99988V3.12588H22.9121V4.11988C23.1174 3.76522 23.3974 3.48988 23.7521 3.29388C24.1161 3.08855 24.5361 2.98588 25.0121 2.98588C25.4974 2.98588 25.9081 3.09322 26.2441 3.30788C26.5894 3.52255 26.8508 3.84922 27.0281 4.28788C27.2428 3.87722 27.5508 3.55988 27.9521 3.33588C28.3628 3.10255 28.8154 2.98588 29.3101 2.98588C30.0941 2.98588 30.6774 3.22388 31.0601 3.69988C31.4428 4.16655 31.6341 4.88988 31.6341 5.86988V9.99988H29.5201V5.93988C29.5201 5.48255 29.4454 5.15122 29.2961 4.94588C29.1561 4.73122 28.9134 4.62388 28.5681 4.62388C28.1668 4.62388 27.8541 4.76388 27.6301 5.04388C27.4061 5.32388 27.2941 5.72055 27.2941 6.23388V9.99988H25.1801V5.93988C25.1801 5.48255 25.1054 5.15122 24.9561 4.94588C24.8068 4.73122 24.5641 4.62388 24.2281 4.62388C23.8268 4.62388 23.5141 4.76388 23.2901 5.04388C23.0661 5.32388 22.9541 5.72055 22.9541 6.23388V9.99988H20.8401Z" fill="black"/>
<path d="M36.5575 10.1539C35.8202 10.1539 35.1762 10.0092 34.6255 9.71988C34.0842 9.42122 33.6642 9.00588 33.3655 8.47388C33.0668 7.93255 32.9175 7.29322 32.9175 6.55588C32.9175 5.82788 33.0668 5.19788 33.3655 4.66588C33.6642 4.12455 34.0842 3.70922 34.6255 3.41988C35.1762 3.13055 35.8202 2.98588 36.5575 2.98588C37.2948 2.98588 37.9342 3.13055 38.4755 3.41988C39.0262 3.70922 39.4508 4.12455 39.7495 4.66588C40.0575 5.19788 40.2115 5.82788 40.2115 6.55588C40.2115 7.29322 40.0575 7.93255 39.7495 8.47388C39.4508 9.00588 39.0262 9.42122 38.4755 9.71988C37.9342 10.0092 37.2948 10.1539 36.5575 10.1539ZM36.5575 8.57188C37.0055 8.57188 37.3695 8.40855 37.6495 8.08188C37.9388 7.75522 38.0835 7.24655 38.0835 6.55588C38.0835 5.87455 37.9388 5.37522 37.6495 5.05788C37.3695 4.73122 37.0055 4.56788 36.5575 4.56788C36.1095 4.56788 35.7455 4.73122 35.4655 5.05788C35.1855 5.37522 35.0455 5.87455 35.0455 6.55588C35.0455 7.24655 35.1855 7.75522 35.4655 8.08188C35.7455 8.40855 36.1095 8.57188 36.5575 8.57188Z" fill="black"/>
<path d="M41.4976 9.99988V3.12588H43.5696V4.13388C43.803 3.76055 44.1156 3.47588 44.5076 3.27988C44.8996 3.08388 45.3383 2.98588 45.8236 2.98588C46.6356 2.98588 47.2423 3.22388 47.6436 3.69988C48.045 4.16655 48.2456 4.88988 48.2456 5.86988V9.99988H46.1316V5.96788C46.1316 5.49188 46.043 5.15122 45.8656 4.94588C45.6883 4.73122 45.427 4.62388 45.0816 4.62388C44.6336 4.62388 44.2743 4.76388 44.0036 5.04388C43.7423 5.32388 43.6116 5.69722 43.6116 6.16388V9.99988H41.4976Z" fill="black"/>
<path d="M53.1278 10.1539C52.3905 10.1539 51.7465 10.0092 51.1958 9.71988C50.6545 9.42122 50.2345 9.00588 49.9358 8.47388C49.6371 7.93255 49.4878 7.29322 49.4878 6.55588C49.4878 5.82788 49.6371 5.19788 49.9358 4.66588C50.2345 4.12455 50.6545 3.70922 51.1958 3.41988C51.7465 3.13055 52.3905 2.98588 53.1278 2.98588C53.8651 2.98588 54.5045 3.13055 55.0458 3.41988C55.5965 3.70922 56.0211 4.12455 56.3198 4.66588C56.6278 5.19788 56.7818 5.82788 56.7818 6.55588C56.7818 7.29322 56.6278 7.93255 56.3198 8.47388C56.0211 9.00588 55.5965 9.42122 55.0458 9.71988C54.5045 10.0092 53.8651 10.1539 53.1278 10.1539ZM53.1278 8.57188C53.5758 8.57188 53.9398 8.40855 54.2198 8.08188C54.5091 7.75522 54.6538 7.24655 54.6538 6.55588C54.6538 5.87455 54.5091 5.37522 54.2198 5.05788C53.9398 4.73122 53.5758 4.56788 53.1278 4.56788C52.6798 4.56788 52.3158 4.73122 52.0358 5.05788C51.7558 5.37522 51.6158 5.87455 51.6158 6.55588C51.6158 7.24655 51.7558 7.75522 52.0358 8.08188C52.3158 8.40855 52.6798 8.57188 53.1278 8.57188Z" fill="black"/>
<path d="M65.3104 10.1539C64.5638 10.1539 63.9104 10.0092 63.3504 9.71988C62.7998 9.42122 62.3751 9.00122 62.0764 8.45988C61.7778 7.91855 61.6284 7.27922 61.6284 6.54188C61.6284 5.80455 61.7778 5.16988 62.0764 4.63788C62.3751 4.10588 62.7998 3.69988 63.3504 3.41988C63.9104 3.13055 64.5638 2.98588 65.3104 2.98588C65.7491 2.98588 66.1924 3.05122 66.6404 3.18188C67.0884 3.31255 67.4524 3.49922 67.7324 3.74188L67.1444 5.19788C66.9111 5.01122 66.6498 4.86655 66.3604 4.76388C66.0711 4.65188 65.7911 4.59588 65.5204 4.59588C64.9698 4.59588 64.5404 4.76855 64.2324 5.11388C63.9338 5.44988 63.7844 5.93055 63.7844 6.55588C63.7844 7.17188 63.9338 7.65722 64.2324 8.01188C64.5404 8.35722 64.9698 8.52988 65.5204 8.52988C65.7818 8.52988 66.0571 8.47855 66.3464 8.37588C66.6451 8.27322 66.9111 8.12388 67.1444 7.92788L67.7324 9.38388C67.4524 9.62655 67.0884 9.81788 66.6404 9.95788C66.1924 10.0886 65.7491 10.1539 65.3104 10.1539Z" fill="black"/>
<path d="M68.65 9.99988V0.129883H70.764V4.06388C71.0066 3.70922 71.3193 3.44322 71.702 3.26588C72.0846 3.07922 72.5093 2.98588 72.976 2.98588C74.5906 2.98588 75.398 3.94722 75.398 5.86988V9.99988H73.284V5.96788C73.284 5.49188 73.1953 5.15122 73.018 4.94588C72.8406 4.73122 72.5793 4.62388 72.234 4.62388C71.786 4.62388 71.4266 4.76388 71.156 5.04388C70.8946 5.32388 70.764 5.69722 70.764 6.16388V9.99988H68.65Z" fill="black"/>
<path d="M80.5462 10.1539C79.7342 10.1539 79.0342 10.0092 78.4462 9.71988C77.8675 9.42122 77.4195 9.00588 77.1021 8.47388C76.7941 7.93255 76.6402 7.29788 76.6402 6.56988C76.6402 5.86055 76.7895 5.23988 77.0882 4.70788C77.3962 4.16655 77.8115 3.74655 78.3342 3.44788C78.8662 3.13988 79.4775 2.98588 80.1682 2.98588C81.1668 2.98588 81.9601 3.30322 82.5481 3.93788C83.1361 4.56322 83.4302 5.41255 83.4302 6.48588V7.01788H78.6562C78.7308 7.55922 78.9268 7.95588 79.2442 8.20788C79.5708 8.45055 80.0188 8.57188 80.5882 8.57188C80.9615 8.57188 81.3395 8.51588 81.7221 8.40388C82.1048 8.29188 82.4502 8.11922 82.7582 7.88588L83.3181 9.29988C82.9728 9.56122 82.5482 9.77122 82.0442 9.92988C81.5495 10.0792 81.0502 10.1539 80.5462 10.1539ZM80.2522 4.38588C79.8042 4.38588 79.4402 4.52122 79.1602 4.79188C78.8895 5.06255 78.7215 5.44055 78.6562 5.92588H81.6801C81.6241 4.89922 81.1482 4.38588 80.2522 4.38588Z" fill="black"/>
<path d="M88.0057 10.1539C87.2591 10.1539 86.6057 10.0092 86.0457 9.71988C85.4951 9.42122 85.0704 9.00122 84.7717 8.45988C84.4731 7.91855 84.3237 7.27922 84.3237 6.54188C84.3237 5.80455 84.4731 5.16988 84.7717 4.63788C85.0704 4.10588 85.4951 3.69988 86.0457 3.41988C86.6057 3.13055 87.2591 2.98588 88.0057 2.98588C88.4444 2.98588 88.8877 3.05122 89.3357 3.18188C89.7837 3.31255 90.1477 3.49922 90.4277 3.74188L89.8397 5.19788C89.6064 5.01122 89.3451 4.86655 89.0557 4.76388C88.7664 4.65188 88.4864 4.59588 88.2157 4.59588C87.6651 4.59588 87.2357 4.76855 86.9277 5.11388C86.6291 5.44988 86.4797 5.93055 86.4797 6.55588C86.4797 7.17188 86.6291 7.65722 86.9277 8.01188C87.2357 8.35722 87.6651 8.52988 88.2157 8.52988C88.4771 8.52988 88.7524 8.47855 89.0417 8.37588C89.3404 8.27322 89.6064 8.12388 89.8397 7.92788L90.4277 9.38388C90.1477 9.62655 89.7837 9.81788 89.3357 9.95788C88.8877 10.0886 88.4444 10.1539 88.0057 10.1539Z" fill="black"/>
<path d="M91.3453 9.99988V0.129883H93.4593V5.96788H93.4873L96.0213 3.12588H98.5273L95.6153 6.41588L98.6673 9.99988H96.1193L93.4873 7.03188H93.4593V9.99988H91.3453Z" fill="black"/>
<path d="M102.347 10.1539C101.609 10.1539 100.965 10.0092 100.415 9.71988C99.8732 9.42122 99.4532 9.00588 99.1546 8.47388C98.8559 7.93255 98.7066 7.29322 98.7066 6.55588C98.7066 5.82788 98.8559 5.19788 99.1546 4.66588C99.4532 4.12455 99.8732 3.70922 100.415 3.41988C100.965 3.13055 101.609 2.98588 102.347 2.98588C103.084 2.98588 103.723 3.13055 104.265 3.41988C104.815 3.70922 105.24 4.12455 105.539 4.66588C105.847 5.19788 106.001 5.82788 106.001 6.55588C106.001 7.29322 105.847 7.93255 105.539 8.47388C105.24 9.00588 104.815 9.42122 104.265 9.71988C103.723 10.0092 103.084 10.1539 102.347 10.1539ZM102.347 8.57188C102.795 8.57188 103.159 8.40855 103.439 8.08188C103.728 7.75522 103.873 7.24655 103.873 6.55588C103.873 5.87455 103.728 5.37522 103.439 5.05788C103.159 4.73122 102.795 4.56788 102.347 4.56788C101.899 4.56788 101.535 4.73122 101.255 5.05788C100.975 5.37522 100.835 5.87455 100.835 6.55588C100.835 7.24655 100.975 7.75522 101.255 8.08188C101.535 8.40855 101.899 8.57188 102.347 8.57188Z" fill="black"/>
<path d="M109.821 10.1539C108.943 10.1539 108.295 9.91122 107.875 9.42588C107.464 8.94055 107.259 8.21255 107.259 7.24188V3.12588H109.373V7.29788C109.373 8.10988 109.723 8.51588 110.423 8.51588C110.824 8.51588 111.151 8.37588 111.403 8.09588C111.664 7.80655 111.795 7.42855 111.795 6.96188V3.12588H113.909V9.99988H111.851V9.06188C111.393 9.78988 110.717 10.1539 109.821 10.1539Z" fill="black"/>
<path d="M118.919 10.1539C116.987 10.1539 116.021 9.21588 116.021 7.33988V4.70788H114.719V3.12588H116.021V1.10988H118.135V3.12588H120.165V4.70788H118.135V7.25588C118.135 7.64788 118.223 7.94188 118.401 8.13788C118.587 8.33388 118.881 8.43188 119.283 8.43188C119.404 8.43188 119.53 8.41788 119.661 8.38988C119.801 8.36188 119.95 8.32455 120.109 8.27788L120.417 9.81788C120.221 9.92055 119.987 9.99988 119.717 10.0559C119.446 10.1212 119.18 10.1539 118.919 10.1539Z" fill="black"/>
</svg>
