<svg width="203" height="48" viewBox="0 0 203 48" fill="none" xmlns="http://www.w3.org/2000/svg">
<rect width="203" height="48" rx="8" fill="black"/>
<line x1="56.5" y1="26.5" x2="56.5" y2="35.5" stroke="white" stroke-opacity="0.28" stroke-linecap="round"/>
<path fill-rule="evenodd" clip-rule="evenodd" d="M47.6614 28.4619C48.0651 27.9908 48.54 27.5862 49.0694 27.2638L49.4271 27.0459C49.6017 26.9395 49.8282 27.0261 49.8904 27.2228L50.0515 27.7326C50.351 28.6806 50.5065 29.6693 50.5126 30.6647C50.7829 31.077 51 31.4458 51 32.0567C51 34.0566 49.1577 35.6292 46.8708 35.9454L46.8522 35.9479L46 36L45.1478 35.9479L45.1292 35.9454C42.8423 35.6292 41 34.0566 41 32.0567C41 31.4949 41.2538 31.0643 41.4919 30.6725C41.5001 29.6647 41.6576 28.6637 41.959 27.7032L42.109 27.2252C42.1712 27.0272 42.399 26.9399 42.5744 27.0468L43.0748 27.3516C43.5727 27.6549 44.0168 28.0399 44.3893 28.4902C44.4232 28.4753 44.4564 28.4606 44.4889 28.4461C44.6843 28.3595 44.8557 28.2835 45.0294 28.2292C45.2941 28.1464 45.5722 28.1086 46 28.1086C46.7546 28.1086 47.132 28.243 47.6614 28.4619Z" fill="white"/>
<path d="M61.84 35V28.126H63.912V29.12C64.1173 28.7653 64.3973 28.49 64.752 28.294C65.116 28.0887 65.536 27.986 66.012 27.986C66.4973 27.986 66.908 28.0933 67.244 28.308C67.5893 28.5227 67.8507 28.8493 68.028 29.288C68.2427 28.8773 68.5507 28.56 68.952 28.336C69.3627 28.1027 69.8153 27.986 70.31 27.986C71.094 27.986 71.6773 28.224 72.06 28.7C72.4427 29.1667 72.634 29.89 72.634 30.87V35H70.52V30.94C70.52 30.4827 70.4453 30.1513 70.296 29.946C70.156 29.7313 69.9133 29.624 69.568 29.624C69.1667 29.624 68.854 29.764 68.63 30.044C68.406 30.324 68.294 30.7207 68.294 31.234V35H66.18V30.94C66.18 30.4827 66.1053 30.1513 65.956 29.946C65.8067 29.7313 65.564 29.624 65.228 29.624C64.8267 29.624 64.514 29.764 64.29 30.044C64.066 30.324 63.954 30.7207 63.954 31.234V35H61.84ZM77.5574 35.154C76.8201 35.154 76.1761 35.0093 75.6254 34.72C75.0841 34.4213 74.6641 34.006 74.3654 33.474C74.0667 32.9327 73.9174 32.2933 73.9174 31.556C73.9174 30.828 74.0667 30.198 74.3654 29.666C74.6641 29.1247 75.0841 28.7093 75.6254 28.42C76.1761 28.1307 76.8201 27.986 77.5574 27.986C78.2947 27.986 78.9341 28.1307 79.4754 28.42C80.0261 28.7093 80.4507 29.1247 80.7494 29.666C81.0574 30.198 81.2114 30.828 81.2114 31.556C81.2114 32.2933 81.0574 32.9327 80.7494 33.474C80.4507 34.006 80.0261 34.4213 79.4754 34.72C78.9341 35.0093 78.2947 35.154 77.5574 35.154ZM77.5574 33.572C78.0054 33.572 78.3694 33.4087 78.6494 33.082C78.9387 32.7553 79.0834 32.2467 79.0834 31.556C79.0834 30.8747 78.9387 30.3753 78.6494 30.058C78.3694 29.7313 78.0054 29.568 77.5574 29.568C77.1094 29.568 76.7454 29.7313 76.4654 30.058C76.1854 30.3753 76.0454 30.8747 76.0454 31.556C76.0454 32.2467 76.1854 32.7553 76.4654 33.082C76.7454 33.4087 77.1094 33.572 77.5574 33.572ZM82.4975 35V28.126H84.5695V29.134C84.8029 28.7607 85.1155 28.476 85.5075 28.28C85.8995 28.084 86.3382 27.986 86.8235 27.986C87.6355 27.986 88.2422 28.224 88.6435 28.7C89.0449 29.1667 89.2455 29.89 89.2455 30.87V35H87.1315V30.968C87.1315 30.492 87.0429 30.1513 86.8655 29.946C86.6882 29.7313 86.4269 29.624 86.0815 29.624C85.6335 29.624 85.2742 29.764 85.0035 30.044C84.7422 30.324 84.6115 30.6973 84.6115 31.164V35H82.4975ZM94.1277 35.154C93.3904 35.154 92.7464 35.0093 92.1957 34.72C91.6544 34.4213 91.2344 34.006 90.9357 33.474C90.6371 32.9327 90.4877 32.2933 90.4877 31.556C90.4877 30.828 90.6371 30.198 90.9357 29.666C91.2344 29.1247 91.6544 28.7093 92.1957 28.42C92.7464 28.1307 93.3904 27.986 94.1277 27.986C94.8651 27.986 95.5044 28.1307 96.0457 28.42C96.5964 28.7093 97.0211 29.1247 97.3197 29.666C97.6277 30.198 97.7817 30.828 97.7817 31.556C97.7817 32.2933 97.6277 32.9327 97.3197 33.474C97.0211 34.006 96.5964 34.4213 96.0457 34.72C95.5044 35.0093 94.8651 35.154 94.1277 35.154ZM94.1277 33.572C94.5757 33.572 94.9397 33.4087 95.2197 33.082C95.5091 32.7553 95.6537 32.2467 95.6537 31.556C95.6537 30.8747 95.5091 30.3753 95.2197 30.058C94.9397 29.7313 94.5757 29.568 94.1277 29.568C93.6797 29.568 93.3157 29.7313 93.0357 30.058C92.7557 30.3753 92.6157 30.8747 92.6157 31.556C92.6157 32.2467 92.7557 32.7553 93.0357 33.082C93.3157 33.4087 93.6797 33.572 94.1277 33.572ZM106.31 35.154C105.564 35.154 104.91 35.0093 104.35 34.72C103.8 34.4213 103.375 34.0013 103.076 33.46C102.778 32.9187 102.628 32.2793 102.628 31.542C102.628 30.8047 102.778 30.17 103.076 29.638C103.375 29.106 103.8 28.7 104.35 28.42C104.91 28.1307 105.564 27.986 106.31 27.986C106.749 27.986 107.192 28.0513 107.64 28.182C108.088 28.3127 108.452 28.4993 108.732 28.742L108.144 30.198C107.911 30.0113 107.65 29.8667 107.36 29.764C107.071 29.652 106.791 29.596 106.52 29.596C105.97 29.596 105.54 29.7687 105.232 30.114C104.934 30.45 104.784 30.9307 104.784 31.556C104.784 32.172 104.934 32.6573 105.232 33.012C105.54 33.3573 105.97 33.53 106.52 33.53C106.782 33.53 107.057 33.4787 107.346 33.376C107.645 33.2733 107.911 33.124 108.144 32.928L108.732 34.384C108.452 34.6267 108.088 34.818 107.64 34.958C107.192 35.0887 106.749 35.154 106.31 35.154ZM109.65 35V25.13H111.764V29.064C112.007 28.7093 112.319 28.4433 112.702 28.266C113.085 28.0793 113.509 27.986 113.976 27.986C115.591 27.986 116.398 28.9473 116.398 30.87V35H114.284V30.968C114.284 30.492 114.195 30.1513 114.018 29.946C113.841 29.7313 113.579 29.624 113.234 29.624C112.786 29.624 112.427 29.764 112.156 30.044C111.895 30.324 111.764 30.6973 111.764 31.164V35H109.65ZM121.546 35.154C120.734 35.154 120.034 35.0093 119.446 34.72C118.867 34.4213 118.419 34.006 118.102 33.474C117.794 32.9327 117.64 32.298 117.64 31.57C117.64 30.8607 117.789 30.24 118.088 29.708C118.396 29.1667 118.811 28.7467 119.334 28.448C119.866 28.14 120.477 27.986 121.168 27.986C122.167 27.986 122.96 28.3033 123.548 28.938C124.136 29.5633 124.43 30.4127 124.43 31.486V32.018H119.656C119.731 32.5593 119.927 32.956 120.244 33.208C120.571 33.4507 121.019 33.572 121.588 33.572C121.961 33.572 122.339 33.516 122.722 33.404C123.105 33.292 123.45 33.1193 123.758 32.886L124.318 34.3C123.973 34.5613 123.548 34.7713 123.044 34.93C122.549 35.0793 122.05 35.154 121.546 35.154ZM121.252 29.386C120.804 29.386 120.44 29.5213 120.16 29.792C119.889 30.0627 119.721 30.4407 119.656 30.926H122.68C122.624 29.8993 122.148 29.386 121.252 29.386ZM129.006 35.154C128.259 35.154 127.606 35.0093 127.046 34.72C126.495 34.4213 126.07 34.0013 125.772 33.46C125.473 32.9187 125.324 32.2793 125.324 31.542C125.324 30.8047 125.473 30.17 125.772 29.638C126.07 29.106 126.495 28.7 127.046 28.42C127.606 28.1307 128.259 27.986 129.006 27.986C129.444 27.986 129.888 28.0513 130.336 28.182C130.784 28.3127 131.148 28.4993 131.428 28.742L130.84 30.198C130.606 30.0113 130.345 29.8667 130.056 29.764C129.766 29.652 129.486 29.596 129.216 29.596C128.665 29.596 128.236 29.7687 127.928 30.114C127.629 30.45 127.48 30.9307 127.48 31.556C127.48 32.172 127.629 32.6573 127.928 33.012C128.236 33.3573 128.665 33.53 129.216 33.53C129.477 33.53 129.752 33.4787 130.042 33.376C130.34 33.2733 130.606 33.124 130.84 32.928L131.428 34.384C131.148 34.6267 130.784 34.818 130.336 34.958C129.888 35.0887 129.444 35.154 129.006 35.154ZM132.345 35V25.13H134.459V30.968H134.487L137.021 28.126H139.527L136.615 31.416L139.667 35H137.119L134.487 32.032H134.459V35H132.345ZM143.346 35.154C142.609 35.154 141.965 35.0093 141.414 34.72C140.873 34.4213 140.453 34.006 140.154 33.474C139.856 32.9327 139.706 32.2933 139.706 31.556C139.706 30.828 139.856 30.198 140.154 29.666C140.453 29.1247 140.873 28.7093 141.414 28.42C141.965 28.1307 142.609 27.986 143.346 27.986C144.084 27.986 144.723 28.1307 145.264 28.42C145.815 28.7093 146.24 29.1247 146.538 29.666C146.846 30.198 147 30.828 147 31.556C147 32.2933 146.846 32.9327 146.538 33.474C146.24 34.006 145.815 34.4213 145.264 34.72C144.723 35.0093 144.084 35.154 143.346 35.154ZM143.346 33.572C143.794 33.572 144.158 33.4087 144.438 33.082C144.728 32.7553 144.872 32.2467 144.872 31.556C144.872 30.8747 144.728 30.3753 144.438 30.058C144.158 29.7313 143.794 29.568 143.346 29.568C142.898 29.568 142.534 29.7313 142.254 30.058C141.974 30.3753 141.834 30.8747 141.834 31.556C141.834 32.2467 141.974 32.7553 142.254 33.082C142.534 33.4087 142.898 33.572 143.346 33.572ZM150.821 35.154C149.943 35.154 149.295 34.9113 148.875 34.426C148.464 33.9407 148.259 33.2127 148.259 32.242V28.126H150.373V32.298C150.373 33.11 150.723 33.516 151.423 33.516C151.824 33.516 152.151 33.376 152.403 33.096C152.664 32.8067 152.795 32.4287 152.795 31.962V28.126H154.909V35H152.851V34.062C152.393 34.79 151.717 35.154 150.821 35.154ZM159.918 35.154C157.986 35.154 157.02 34.216 157.02 32.34V29.708H155.718V28.126H157.02V26.11H159.134V28.126H161.164V29.708H159.134V32.256C159.134 32.648 159.223 32.942 159.4 33.138C159.587 33.334 159.881 33.432 160.282 33.432C160.404 33.432 160.53 33.418 160.66 33.39C160.8 33.362 160.95 33.3247 161.108 33.278L161.416 34.818C161.22 34.9207 160.987 35 160.716 35.056C160.446 35.1213 160.18 35.154 159.918 35.154Z" fill="white"/>
<path d="M57.4939 18.108C56.6859 18.108 55.9859 17.932 55.3939 17.58C54.8019 17.22 54.3419 16.716 54.0139 16.068C53.6939 15.412 53.5339 14.644 53.5339 13.764C53.5339 12.876 53.6939 12.108 54.0139 11.46C54.3419 10.812 54.8019 10.312 55.3939 9.96C55.9859 9.608 56.6859 9.432 57.4939 9.432C58.2939 9.432 58.9899 9.608 59.5819 9.96C60.1819 10.312 60.6419 10.812 60.9619 11.46C61.2899 12.108 61.4539 12.872 61.4539 13.752C61.4539 14.64 61.2899 15.412 60.9619 16.068C60.6419 16.716 60.1819 17.22 59.5819 17.58C58.9899 17.932 58.2939 18.108 57.4939 18.108ZM57.4939 17.028C58.3339 17.028 58.9859 16.744 59.4499 16.176C59.9219 15.6 60.1579 14.796 60.1579 13.764C60.1579 12.732 59.9259 11.932 59.4619 11.364C58.9979 10.796 58.3419 10.512 57.4939 10.512C56.6539 10.512 55.9979 10.796 55.5259 11.364C55.0619 11.932 54.8299 12.732 54.8299 13.764C54.8299 14.796 55.0619 15.6 55.5259 16.176C55.9979 16.744 56.6539 17.028 57.4939 17.028ZM66.4266 20.16V17.112C66.1226 17.776 65.6026 18.108 64.8666 18.108C64.4426 18.108 64.0666 17.984 63.7386 17.736C63.4186 17.488 63.1666 17.136 62.9826 16.68C62.8066 16.224 62.7186 15.688 62.7186 15.072C62.7186 14.448 62.8066 13.912 62.9826 13.464C63.1666 13.008 63.4186 12.656 63.7386 12.408C64.0666 12.16 64.4426 12.036 64.8666 12.036C65.2346 12.036 65.5506 12.124 65.8146 12.3C66.0786 12.476 66.2826 12.72 66.4266 13.032V9.54H67.6386V13.02C67.7826 12.708 67.9866 12.468 68.2506 12.3C68.5146 12.124 68.8266 12.036 69.1866 12.036C69.6106 12.036 69.9826 12.16 70.3026 12.408C70.6306 12.656 70.8826 13.008 71.0586 13.464C71.2426 13.912 71.3346 14.448 71.3346 15.072C71.3346 15.688 71.2426 16.224 71.0586 16.68C70.8826 17.136 70.6346 17.488 70.3146 17.736C69.9946 17.984 69.6186 18.108 69.1866 18.108C68.4666 18.108 67.9506 17.78 67.6386 17.124V20.16H66.4266ZM65.1906 17.184C65.5746 17.184 65.8786 17.008 66.1026 16.656C66.3346 16.304 66.4506 15.776 66.4506 15.072C66.4506 14.376 66.3346 13.852 66.1026 13.5C65.8786 13.148 65.5746 12.972 65.1906 12.972C64.8146 12.972 64.5106 13.148 64.2786 13.5C64.0466 13.852 63.9306 14.376 63.9306 15.072C63.9306 15.776 64.0426 16.304 64.2666 16.656C64.4986 17.008 64.8066 17.184 65.1906 17.184ZM68.8626 17.184C69.2466 17.184 69.5506 17.008 69.7746 16.656C70.0066 16.304 70.1226 15.776 70.1226 15.072C70.1226 14.376 70.0066 13.852 69.7746 13.5C69.5506 13.148 69.2466 12.972 68.8626 12.972C68.4786 12.972 68.1746 13.148 67.9506 13.5C67.7266 13.852 67.6146 14.376 67.6146 15.072C67.6146 15.776 67.7266 16.304 67.9506 16.656C68.1746 17.008 68.4786 17.184 68.8626 17.184ZM75.384 18.108C74.792 18.108 74.28 17.984 73.848 17.736C73.416 17.488 73.08 17.14 72.84 16.692C72.608 16.236 72.492 15.696 72.492 15.072C72.492 14.448 72.608 13.912 72.84 13.464C73.08 13.008 73.416 12.656 73.848 12.408C74.28 12.16 74.792 12.036 75.384 12.036C75.96 12.036 76.464 12.16 76.896 12.408C77.328 12.656 77.664 13.008 77.904 13.464C78.144 13.912 78.264 14.448 78.264 15.072C78.264 15.696 78.144 16.236 77.904 16.692C77.664 17.14 77.328 17.488 76.896 17.736C76.464 17.984 75.96 18.108 75.384 18.108ZM75.384 17.172C75.88 17.172 76.28 16.992 76.584 16.632C76.888 16.272 77.04 15.752 77.04 15.072C77.04 14.392 76.888 13.876 76.584 13.524C76.28 13.164 75.88 12.984 75.384 12.984C74.88 12.984 74.476 13.164 74.172 13.524C73.868 13.876 73.716 14.392 73.716 15.072C73.716 15.752 73.868 16.272 74.172 16.632C74.476 16.992 74.88 17.172 75.384 17.172ZM79.7658 20.16V12.144H80.9538V13.14C81.1218 12.804 81.3778 12.536 81.7218 12.336C82.0658 12.136 82.4618 12.036 82.9098 12.036C83.4298 12.036 83.8818 12.16 84.2658 12.408C84.6578 12.656 84.9578 13.008 85.1658 13.464C85.3818 13.912 85.4898 14.448 85.4898 15.072C85.4898 15.696 85.3818 16.236 85.1658 16.692C84.9578 17.148 84.6578 17.5 84.2658 17.748C83.8818 17.988 83.4298 18.108 82.9098 18.108C82.4778 18.108 82.0898 18.016 81.7458 17.832C81.4098 17.64 81.1538 17.38 80.9778 17.052V20.16H79.7658ZM82.6098 17.172C83.1138 17.172 83.5138 16.992 83.8098 16.632C84.1138 16.272 84.2658 15.752 84.2658 15.072C84.2658 14.392 84.1138 13.876 83.8098 13.524C83.5138 13.164 83.1138 12.984 82.6098 12.984C82.1058 12.984 81.7018 13.164 81.3978 13.524C81.1018 13.876 80.9538 14.392 80.9538 15.072C80.9538 15.752 81.1018 16.272 81.3978 16.632C81.7018 16.992 82.1058 17.172 82.6098 17.172ZM86.9725 18V12.144H87.9685L90.0925 15.852L92.2045 12.144H93.2005V18H92.1325V14.028L90.3805 17.052H89.7925L88.0405 14.028V18H86.9725ZM95.0233 18V12.144H96.1273V16.392L99.2953 12.144H100.315V18H99.2113V13.764L96.0433 18H95.0233ZM103.361 18V13.116H101.297V12.144H106.649V13.116H104.573V18H103.361ZM107.621 18V12.144H108.725V16.392L111.893 12.144H112.913V18H111.809V13.764L108.641 18H107.621ZM121.607 18V15.744C121.175 15.992 120.687 16.116 120.143 16.116C119.295 16.116 118.667 15.912 118.259 15.504C117.851 15.096 117.647 14.476 117.647 13.644V12.144H118.859V13.548C118.859 14.1 118.971 14.5 119.195 14.748C119.427 14.996 119.807 15.12 120.335 15.12C120.591 15.12 120.819 15.092 121.019 15.036C121.219 14.98 121.411 14.884 121.595 14.748V12.144H122.807V18H121.607ZM127.385 18.108C126.425 18.108 125.669 17.84 125.117 17.304C124.565 16.76 124.289 16.02 124.289 15.084C124.289 14.484 124.409 13.956 124.649 13.5C124.897 13.036 125.237 12.676 125.669 12.42C126.101 12.164 126.597 12.036 127.157 12.036C127.965 12.036 128.601 12.296 129.065 12.816C129.529 13.328 129.761 14.036 129.761 14.94V15.348H125.465C125.553 16.564 126.197 17.172 127.397 17.172C127.733 17.172 128.061 17.12 128.381 17.016C128.709 16.912 129.017 16.74 129.305 16.5L129.665 17.34C129.401 17.58 129.061 17.768 128.645 17.904C128.229 18.04 127.809 18.108 127.385 18.108ZM127.205 12.888C126.701 12.888 126.301 13.044 126.005 13.356C125.709 13.668 125.529 14.084 125.465 14.604H128.741C128.717 14.06 128.573 13.64 128.309 13.344C128.045 13.04 127.677 12.888 127.205 12.888ZM131.211 20.16V12.144H132.399V13.14C132.567 12.804 132.823 12.536 133.167 12.336C133.511 12.136 133.907 12.036 134.355 12.036C134.875 12.036 135.327 12.16 135.711 12.408C136.103 12.656 136.403 13.008 136.611 13.464C136.827 13.912 136.935 14.448 136.935 15.072C136.935 15.696 136.827 16.236 136.611 16.692C136.403 17.148 136.103 17.5 135.711 17.748C135.327 17.988 134.875 18.108 134.355 18.108C133.923 18.108 133.535 18.016 133.191 17.832C132.855 17.64 132.599 17.38 132.423 17.052V20.16H131.211ZM134.055 17.172C134.559 17.172 134.959 16.992 135.255 16.632C135.559 16.272 135.711 15.752 135.711 15.072C135.711 14.392 135.559 13.876 135.255 13.524C134.959 13.164 134.559 12.984 134.055 12.984C133.551 12.984 133.147 13.164 132.843 13.524C132.547 13.876 132.399 14.392 132.399 15.072C132.399 15.752 132.547 16.272 132.843 16.632C133.147 16.992 133.551 17.172 134.055 17.172ZM141.178 18.108C140.218 18.108 139.462 17.84 138.91 17.304C138.358 16.76 138.082 16.02 138.082 15.084C138.082 14.484 138.202 13.956 138.442 13.5C138.69 13.036 139.03 12.676 139.462 12.42C139.894 12.164 140.39 12.036 140.95 12.036C141.758 12.036 142.394 12.296 142.858 12.816C143.322 13.328 143.554 14.036 143.554 14.94V15.348H139.258C139.346 16.564 139.99 17.172 141.19 17.172C141.526 17.172 141.854 17.12 142.174 17.016C142.502 16.912 142.81 16.74 143.098 16.5L143.458 17.34C143.194 17.58 142.854 17.768 142.438 17.904C142.022 18.04 141.602 18.108 141.178 18.108ZM140.998 12.888C140.494 12.888 140.094 13.044 139.798 13.356C139.502 13.668 139.322 14.084 139.258 14.604H142.534C142.51 14.06 142.366 13.64 142.102 13.344C141.838 13.04 141.47 12.888 140.998 12.888ZM147.032 18.108C146.52 18.108 146.036 18.048 145.58 17.928C145.124 17.8 144.752 17.616 144.464 17.376L144.812 16.56C145.092 16.776 145.424 16.94 145.808 17.052C146.2 17.156 146.6 17.208 147.008 17.208C147.544 17.208 147.932 17.136 148.172 16.992C148.412 16.848 148.532 16.628 148.532 16.332C148.532 15.764 148.164 15.48 147.428 15.48H145.964V14.592H147.296C147.616 14.592 147.868 14.524 148.052 14.388C148.236 14.244 148.328 14.044 148.328 13.788C148.328 13.524 148.22 13.316 148.004 13.164C147.796 13.012 147.448 12.936 146.96 12.936C146.56 12.936 146.192 12.988 145.856 13.092C145.52 13.188 145.2 13.336 144.896 13.536L144.548 12.732C145.22 12.268 146.084 12.036 147.14 12.036C147.9 12.036 148.472 12.184 148.856 12.48C149.248 12.768 149.444 13.168 149.444 13.68C149.444 13.984 149.36 14.252 149.192 14.484C149.024 14.708 148.792 14.872 148.496 14.976C148.856 15.056 149.14 15.22 149.348 15.468C149.556 15.708 149.66 16.008 149.66 16.368C149.66 16.904 149.436 17.328 148.988 17.64C148.54 17.952 147.888 18.108 147.032 18.108Z" fill="white"/>
</svg>
