<svg width="85" height="85" fill="none" xmlns="http://www.w3.org/2000/svg"><circle cx="42.12" cy="42.12" r="42.12" fill="#fff"/><path d="M41.98 57.878c.443 0 .882.086 1.292.252.41.166.782.41 1.095.716.313.306.562.67.731 1.07a3.237 3.237 0 010 2.527c-.17.4-.42.765-.733 1.07a3.38 3.38 0 01-1.095.716c-.41.166-.849.251-1.292.251a3.416 3.416 0 01-2.387-.968 3.264 3.264 0 01-.988-2.334c0-.875.356-1.715.99-2.334a3.415 3.415 0 012.387-.966zm0-37.398c3.58 0 7.014 1.39 9.546 3.866 2.532 2.475 3.954 5.833 3.954 9.333 0 4.763-1.694 7.238-6.016 10.83-4.336 3.602-5.234 5.223-5.234 8.97h-4.5c0-5.443 1.77-8.13 6.82-12.322 3.413-2.836 4.43-4.323 4.43-7.478 0-4.861-4.027-8.8-9-8.8-4.972 0-9 3.939-9 8.8v2.2h-4.5v-2.2c0-3.5 1.422-6.858 3.954-9.333 2.532-2.475 5.966-3.866 9.546-3.866z" fill="#EBEBF0"/></svg>