<svg width="125" height="24" fill="none" xmlns="http://www.w3.org/2000/svg"><path d="M11.58 16.512c0 1.408-.52 2.544-1.56 3.408-1.023.848-2.415 1.272-4.175 1.272-1.744 0-3.216-.344-4.416-1.032v-3.096c1.376.992 2.88 1.488 4.512 1.488.736 0 1.328-.176 1.776-.528.448-.368.672-.856.672-1.464 0-.288-.056-.544-.168-.768-.112-.224-.344-.448-.696-.672a12.195 12.195 0 00-2.28-1.176 19.904 19.904 0 01-1.44-.72 9.532 9.532 0 01-1.2-.888c-.864-.736-1.296-1.776-1.296-3.12s.504-2.432 1.512-3.264c1.024-.832 2.336-1.248 3.936-1.248s2.952.264 4.056.792v2.928c-1.2-.72-2.48-1.08-3.84-1.08-.752 0-1.344.168-1.776.504a1.591 1.591 0 00-.624 1.296c0 .528.224.968.672 1.32.464.336 1.08.68 1.848 1.032.784.352 1.376.64 1.776.864.4.208.832.504 1.296.888.944.768 1.416 1.856 1.416 3.264zM26.956 21h-3.048v-6.792H17.26V21h-3.024V4.824h3.024v6.768h6.648V4.824h3.048V21zM37.297 7.32c-1.36 0-2.432.496-3.216 1.488-.784.992-1.176 2.344-1.176 4.056 0 1.696.4 3.04 1.2 4.032.8.992 1.872 1.488 3.216 1.488 1.36 0 2.432-.488 3.216-1.464.784-.992 1.176-2.344 1.176-4.056 0-1.712-.392-3.064-1.176-4.056-.784-.992-1.864-1.488-3.24-1.488zm.024-2.784c2.336 0 4.192.76 5.568 2.28 1.376 1.504 2.064 3.512 2.064 6.024s-.696 4.528-2.088 6.048c-1.376 1.52-3.224 2.28-5.544 2.28-2.32 0-4.176-.76-5.568-2.28-1.392-1.52-2.088-3.528-2.088-6.024 0-2.512.688-4.528 2.064-6.048 1.392-1.52 3.256-2.28 5.592-2.28zM54.377 21h-3.48l-4.32-16.176h3.192c1.376 5.456 2.392 9.752 3.048 12.888.528-2.064 1.696-6.28 3.504-12.648h2.448l1.656 5.736 1.92 6.96c.4-2.224.896-4.552 1.488-6.984l1.464-5.952h3.072L64.24 21h-3.504c-1.792-6.256-2.848-10.04-3.168-11.352C57.345 10.8 56.28 14.584 54.377 21z" fill="#fff"/><path d="M78.28 21.192c-2.4 0-4.383-.752-5.951-2.256C70.777 17.416 70 15.424 70 12.96c0-2.48.768-4.488 2.304-6.024 1.552-1.552 3.544-2.328 5.976-2.328 1.776 0 3.16.296 4.152.888v2.952c-1.216-.704-2.56-1.056-4.032-1.056s-2.704.504-3.696 1.512c-.976.992-1.464 2.328-1.464 4.008 0 1.68.488 3.016 1.464 4.008.992.992 2.264 1.488 3.816 1.488s2.864-.4 3.936-1.2v3.024c-.992.64-2.384.96-4.176.96zM87.435 21h-3.168l5.472-16.176h3.912L99.122 21h-3.264l-1.152-3.672h-6.12L87.434 21zm4.224-13.92c-.128.688-.888 3.28-2.28 7.776h4.56c-1.328-4.368-2.088-6.96-2.28-7.776zm19.556 9.432c0 1.408-.52 2.544-1.56 3.408-1.024.848-2.416 1.272-4.176 1.272-1.744 0-3.216-.344-4.416-1.032v-3.096c1.376.992 2.88 1.488 4.512 1.488.736 0 1.328-.176 1.776-.528.448-.368.672-.856.672-1.464 0-.288-.056-.544-.168-.768-.112-.224-.344-.448-.696-.672a12.195 12.195 0 00-2.28-1.176 19.904 19.904 0 01-1.44-.72 9.532 9.532 0 01-1.2-.888c-.864-.736-1.296-1.776-1.296-3.12s.504-2.432 1.512-3.264c1.024-.832 2.336-1.248 3.936-1.248s2.952.264 4.056.792v2.928c-1.2-.72-2.48-1.08-3.84-1.08-.752 0-1.344.168-1.776.504a1.591 1.591 0 00-.624 1.296c0 .528.224.968.672 1.32.464.336 1.08.68 1.848 1.032.784.352 1.376.64 1.776.864.4.208.832.504 1.296.888.944.768 1.416 1.856 1.416 3.264zM123.516 21h-9.648V4.824h9.552v2.472h-6.504v4.392h5.784v2.448h-5.784v4.392h6.6V21z" fill="#9DBFF9"/></svg>