<svg width="150" height="150" fill="none" xmlns="http://www.w3.org/2000/svg"><path fill="#fff" d="M0 0h150v150H0z"/><path d="M35.417 60.417h79.167l-8.75 54.166H44.167l-8.75-54.166z" fill="#4F43E3" stroke="#28293D" stroke-width="2" stroke-linecap="round" stroke-linejoin="round"/><path d="M97.917 60.417c0-13.807-10.26-25-22.916-25-12.657 0-22.917 11.193-22.917 25" stroke="#28293D" stroke-width="2" stroke-linecap="round" stroke-linejoin="round"/><path d="M60.417 83.333a4.167 4.167 0 100-8.333 4.167 4.167 0 000 8.333z" fill="#fff"/><path d="M62.5 93.75S66.667 100 75 100s12.5-6.25 12.5-6.25" stroke="#fff" stroke-width="2" stroke-linecap="round" stroke-linejoin="round"/><path d="M89.584 83.333a4.167 4.167 0 100-8.333 4.167 4.167 0 000 8.333z" fill="#fff"/></svg>