<svg width="85" height="85" fill="none" xmlns="http://www.w3.org/2000/svg"><circle cx="42.64" cy="42.64" r="42.12" fill="#fff"/><path d="M40.577 36.118a1.338 1.338 0 01-.074 1.921l-5.377 4.893 5.377 4.894a1.337 1.337 0 01.074 1.921 1.382 1.382 0 01-.965.434 1.413 1.413 0 01-.995-.362l-6.472-5.89a1.336 1.336 0 010-1.993l6.472-5.89a1.388 1.388 0 01.995-.362 1.408 1.408 0 01.965.434zm6.36 1.921a1.342 1.342 0 01-.074-1.921 1.403 1.403 0 011.96-.073l6.472 5.89a1.362 1.362 0 01.443.997 1.336 1.336 0 01-.443.997l-6.472 5.89a1.404 1.404 0 01-1.96-.072 1.342 1.342 0 01.074-1.921l5.377-4.894-5.377-4.893z" fill="#EBEBF0"/><path fill-rule="evenodd" clip-rule="evenodd" d="M21.4 28.74c0-2.065 1.667-3.74 3.72-3.74h37.2c2.053 0 3.72 1.675 3.72 3.74v26.707c0 .992-.392 1.943-1.09 2.645a3.71 3.71 0 01-2.63 1.095H41.722l-7.596 7.634a3.095 3.095 0 01-1.585.851c-.6.12-1.223.06-1.79-.177a3.102 3.102 0 01-1.389-1.146 3.125 3.125 0 01-.522-1.729v-5.433h-3.72a3.71 3.71 0 01-2.63-1.095 3.749 3.749 0 01-1.09-2.645V28.74zm3.72-.535a.535.535 0 00-.532.534v26.708c0 .295.239.535.532.535h5.314a1.6 1.6 0 011.595 1.602V64.4l7.907-7.948c.299-.301.704-.47 1.127-.47H62.32a.534.534 0 00.532-.534v-26.71a.535.535 0 00-.532-.534h-37.2z" fill="#EBEBF0"/></svg>