<svg viewBox="0 0 54 54" xmlns="http://www.w3.org/2000/svg" xmlns:xlink="http://www.w3.org/1999/xlink"><style>:root&gt;svg{display:none}:root&gt;svg:target{display:block}</style><svg fill="none" viewBox="0 0 3 15" id="include--alert-danger-icon" xmlns="http://www.w3.org/2000/svg"><path d="M.92 9.58L.56 0h2.26l-.38 9.58H.92zm.78 4.54c-.373 0-.687-.127-.94-.38a1.23 1.23 0 01-.38-.9c0-.373.127-.68.38-.92s.567-.36.94-.36.68.12.92.36.36.547.36.92c0 .347-.12.647-.36.9s-.547.38-.92.38z" fill="#fff"/></svg><svg fill="none" viewBox="0 0 18 13" id="include--alert-success-icon" xmlns="http://www.w3.org/2000/svg"><path d="M6.622 12.383L.828 6.594a.556.556 0 01.783-.783l5 5 9.772-9.761a.556.556 0 01.784.783L6.622 12.383z" fill="#fff"/></svg><svg fill="none" viewBox="0 0 3 15" id="include--alert-warning-icon" xmlns="http://www.w3.org/2000/svg"><path d="M.92 9.58L.56 0h2.26l-.38 9.58H.92zm.78 4.54c-.373 0-.687-.127-.94-.38a1.23 1.23 0 01-.38-.9c0-.373.127-.68.38-.92s.567-.36.94-.36.68.12.92.36.36.547.36.92c0 .347-.12.647-.36.9s-.547.38-.92.38z" fill="#fff"/></svg><svg fill="none" viewBox="0 0 35 20" id="include--applepay-icon" xmlns="http://www.w3.org/2000/svg"><path d="M18.05 8.366c0 .768-.627 1.21-1.732 1.21h-1.451v-2.42h1.457c1.1 0 1.726.438 1.726 1.21zm2.837 2.795c0 .37.43.611 1.105.611.86 0 1.506-.406 1.506-.977v-.344l-1.404.067c-.794.04-1.207.259-1.207.643zm13.517-9.018v15.714c0 1.183-1.284 2.143-2.867 2.143H2.867C1.284 20 0 19.04 0 17.857V2.143C0 .96 1.284 0 2.867 0h28.67c1.583 0 2.867.96 2.867 2.143zM7.634 7.42c.501.03 1.003-.188 1.32-.465.31-.285.513-.67.46-1.058-.443.014-.992.22-1.309.505-.286.245-.531.643-.472 1.018zm3.62 3.325c-.013-.008-1.172-.339-1.184-1.339-.011-.835.914-1.236.956-1.259-.525-.58-1.338-.643-1.619-.656-.728-.031-1.35.308-1.696.308-.352 0-.878-.295-1.451-.286-.747.01-1.446.326-1.822.83-.783 1.01-.203 2.5.555 3.322.37.406.819.853 1.404.835.556-.018.777-.268 1.446-.268.674 0 .866.268 1.45.264.61-.01.987-.407 1.363-.813.412-.464.585-.91.597-.938zm8.086-2.383c0-1.188-1.105-2-2.681-2H13.6v6.089h1.267v-2.08h1.75c1.6 0 2.723-.822 2.723-2.01zm5.376 1.058c0-.88-.944-1.447-2.39-1.447-1.343 0-2.335.576-2.37 1.362h1.14c.096-.375.562-.62 1.195-.62.777 0 1.207.267 1.207.767v.335l-1.577.071c-1.47.067-2.264.518-2.264 1.3 0 .79.818 1.312 1.995 1.312.794 0 1.53-.3 1.863-.777h.024v.732h1.171V9.42h.006zm6.104-1.39h-1.284l-1.486 3.6h-.024l-1.487-3.598h-1.332l2.144 4.433-.113.268c-.191.456-.508.634-1.07.634-.101 0-.292-.009-.37-.013v.732c.072.018.389.022.484.022 1.236 0 1.816-.352 2.324-1.42l2.215-4.656z" fill="#fff"/></svg><svg fill="none" viewBox="0 0 24 24" id="include--blog-post-comments" xmlns="http://www.w3.org/2000/svg"><path d="M21 17v.5a.5.5 0 00.5-.5H21zm0-13h.5a.5.5 0 00-.5-.5V4zm-8 13v-.5a.5.5 0 00-.277.084L13 17zm-6 4h-.5a.5.5 0 00.777.416L7 21zm0-4h.5a.5.5 0 00-.5-.5v.5zm-4 0h-.5a.5.5 0 00.5.5V17zM3 4v-.5a.5.5 0 00-.5.5H3zm18.5 13V4h-1v13h1zm-8.5.5h8v-1h-8v1zm-5.723 3.916l6-4-.554-.832-6 4 .554.832zM6.5 17v4h1v-4h-1zm-3.5.5h4v-1H3v1zM2.5 4v13h1V4h-1zM21 3.5H3v1h18v-1z" fill="#8F90A6"/></svg><svg fill="none" viewBox="0 0 24 24" id="include--blog-post-date" xmlns="http://www.w3.org/2000/svg"><path d="M3 5h18v16H3V5z" stroke="#8F90A6" stroke-linejoin="round"/><path d="M21 9H3m4-4V3m10 2V3" stroke="#8F90A6" stroke-linecap="round"/></svg><svg fill="none" viewBox="0 0 24 24" id="include--blog-post-views" xmlns="http://www.w3.org/2000/svg"><path d="M22 12s-3 6-10 6-10-6-10-6 3-6 10-6 10 6 10 6z" stroke="#8F90A6" stroke-linecap="round"/><circle cx="12" cy="12" r="3" stroke="#8F90A6" stroke-linecap="round"/></svg><svg fill="none" viewBox="0 0 5 6" id="include--breadcrumb-divider-icon" xmlns="http://www.w3.org/2000/svg"><path d="M1.25 5.5l2.5-2.495L1.25.5" stroke="#28293D" stroke-linecap="round" stroke-linejoin="round"/></svg><svg fill="none" viewBox="0 0 16 16" id="include--breadcrumb-home-icon" xmlns="http://www.w3.org/2000/svg"><path d="M1.333 8l2-1.8M14.667 8l-2-1.8m0 0L8 2 3.333 6.2m9.334 0V14H3.333V6.2" stroke="#28293D"/></svg><svg fill="none" viewBox="0 0 20 23" id="include--btn-cart-icon" xmlns="http://www.w3.org/2000/svg"><path stroke="#F2F4F8" stroke-width="1.4" stroke-linecap="round" stroke-linejoin="round" d="M1.833 7.041h16.333v14H1.833zm3.5 0a4.667 4.667 0 019.334 0"/></svg><svg fill="none" viewBox="0 0 20 23" id="include--btn-header-cart-icon" xmlns="http://www.w3.org/2000/svg"><path stroke="#1C1C28" stroke-width="1.4" stroke-linecap="round" stroke-linejoin="round" d="M1.833 7.041h16.333v14H1.833zm3.5 0a4.667 4.667 0 019.334 0"/></svg><svg fill="none" viewBox="0 0 17 16" id="include--btn-catalog-icon" xmlns="http://www.w3.org/2000/svg"><g clip-path="url(#akclip0_2678_3096)" stroke="#1C1C28"><path d="M6.1.4h-4A1.2 1.2 0 00.9 1.6v4a1.2 1.2 0 001.2 1.2h4a1.2 1.2 0 001.2-1.2v-4A1.2 1.2 0 006.1.4zm8.8 0h-4a1.2 1.2 0 00-1.2 1.2v4a1.2 1.2 0 001.2 1.2h4a1.2 1.2 0 001.2-1.2v-4A1.2 1.2 0 0014.9.4zm0 8.8h-4a1.2 1.2 0 00-1.2 1.2v4a1.2 1.2 0 001.2 1.2h4a1.2 1.2 0 001.2-1.2v-4a1.2 1.2 0 00-1.2-1.2zm-8.8 0h-4a1.2 1.2 0 00-1.2 1.2v4a1.2 1.2 0 001.2 1.2h4a1.2 1.2 0 001.2-1.2v-4a1.2 1.2 0 00-1.2-1.2z"/></g><defs><clipPath id="akclip0_2678_3096"><path fill="#fff" transform="translate(.5)" d="M0 0h16v16H0z"/></clipPath></defs></svg><svg fill="none" viewBox="0 0 17 16" id="include--btn-header-catalog-icon" xmlns="http://www.w3.org/2000/svg"><g clip-path="url(#akclip0_2678_3096)"><path d="M6.1.4h-4A1.2 1.2 0 00.9 1.6v4a1.2 1.2 0 001.2 1.2h4a1.2 1.2 0 001.2-1.2v-4A1.2 1.2 0 006.1.4zm8.8 0h-4a1.2 1.2 0 00-1.2 1.2v4a1.2 1.2 0 001.2 1.2h4a1.2 1.2 0 001.2-1.2v-4A1.2 1.2 0 0014.9.4zm0 8.8h-4a1.2 1.2 0 00-1.2 1.2v4a1.2 1.2 0 001.2 1.2h4a1.2 1.2 0 001.2-1.2v-4a1.2 1.2 0 00-1.2-1.2zm-8.8 0h-4a1.2 1.2 0 00-1.2 1.2v4a1.2 1.2 0 001.2 1.2h4a1.2 1.2 0 001.2-1.2v-4a1.2 1.2 0 00-1.2-1.2z"/></g><defs><clipPath id="akclip0_2678_3096"><path fill="#fff" transform="translate(.5)" d="M0 0h16v16H0z"/></clipPath></defs></svg><svg fill="none" viewBox="0 0 24 24" id="include--btn-del-icon" xmlns="http://www.w3.org/2000/svg"><path d="M20.25 4.875h-4.125V3.75a1.885 1.885 0 00-1.875-1.875h-4.5A1.884 1.884 0 007.875 3.75v1.125H3.75a.375.375 0 100 .75h1.125V19.5A1.125 1.125 0 006 20.625h12a1.125 1.125 0 001.125-1.125V5.625h1.125a.375.375 0 000-.75zM8.625 3.75A1.125 1.125 0 019.75 2.625h4.5a1.125 1.125 0 011.125 1.125v1.125h-6.75V3.75zm9.75 15.75a.375.375 0 01-.375.375H6a.375.375 0 01-.375-.375V5.625h12.75V19.5zm-8.25-9.75v6a.375.375 0 01-.75 0v-6a.375.375 0 01.75 0zm4.5 0v6a.375.375 0 01-.75 0v-6a.375.375 0 11.75 0z" fill="#fff"/></svg><svg fill="none" viewBox="0 0 38 38" id="include--close-icon" xmlns="http://www.w3.org/2000/svg"><path d="M27.072 10l.928.928-17.072 17.071-.928-.927L27.072 10z" fill="#555770"/><path d="M10.928 10L28 27.072l-.928.928L10 10.928l.928-.928z" fill="#555770"/></svg><svg fill="none" viewBox="0 0 24 24" id="include--contacts-phone-icon" xmlns="http://www.w3.org/2000/svg"><path d="M21 13h-2a2 2 0 00-2 2v2a2 2 0 002 2v0a2 2 0 002-2v-4a9 9 0 10-18 0v4a2 2 0 002 2v0a2 2 0 002-2v-2a2 2 0 00-2-2H3" stroke="#555770"/></svg><svg fill="none" viewBox="0 0 24 24" id="include--contacts-shedule-icon" xmlns="http://www.w3.org/2000/svg"><path d="M22.5 12c0 5.799-4.701 10.5-10.5 10.5S1.5 17.799 1.5 12 6.201 1.5 12 1.5 22.5 6.201 22.5 12z" stroke="#555770"/><path d="M12 5v7l4 4" stroke="#555770" stroke-linecap="round"/></svg><svg fill="none" viewBox="0 0 24 24" id="include--dropdown-phones-icon" xmlns="http://www.w3.org/2000/svg"><path d="M21 13h-2a2 2 0 00-2 2v2a2 2 0 002 2v0a2 2 0 002-2v-4a9 9 0 10-18 0v4a2 2 0 002 2v0a2 2 0 002-2v-2a2 2 0 00-2-2H3" stroke="#555770"/></svg><svg fill="none" viewBox="0 0 24 24" id="include--dropdown-shedule-icon" xmlns="http://www.w3.org/2000/svg"><path d="M22.5 12c0 5.799-4.701 10.5-10.5 10.5S1.5 17.799 1.5 12 6.201 1.5 12 1.5 22.5 6.201 22.5 12z" stroke="#555770"/><path d="M12 5v7l4 4" stroke="#555770" stroke-linecap="round"/></svg><svg fill="none" viewBox="0 0 7 13" id="include--facebook-icon" xmlns="http://www.w3.org/2000/svg"><path d="M2.034 13V7.186H0V4.875h2.034v-1.82C2.034 1.076 3.296 0 5.139 0 6.022 0 6.779.063 7 .091v2.067H5.722c-1.002 0-1.196.457-1.196 1.125v1.592h2.262l-.31 2.31H4.526V13" fill="#28293D"/></svg><svg fill="none" viewBox="0 0 21 20" id="include--filter-icon" xmlns="http://www.w3.org/2000/svg"><path d="M4.25 7.708h12.5v1.25H4.25v-1.25zm2.813 3.959h6.875v1.25H7.061v-1.25zm1.875 3.958h3.124v1.25H8.938v-1.25zM2.375 3.75h16.25V5H2.375V3.75z" fill="#28293D"/></svg><svg fill="none" viewBox="0 0 18 11" id="include--footer-mobile-chevron" xmlns="http://www.w3.org/2000/svg"><path d="M16.2 1.834L8.985 9.167 1.8 1.834" stroke="#fff" stroke-linecap="round" stroke-linejoin="round"/></svg><svg fill="none" viewBox="0 0 24 24" id="include--footer-phones-title-icon" xmlns="http://www.w3.org/2000/svg"><path d="M21 13h-2a2 2 0 00-2 2v2a2 2 0 002 2v0a2 2 0 002-2v-4a9 9 0 10-18 0v4a2 2 0 002 2v0a2 2 0 002-2v-2a2 2 0 00-2-2H3" stroke="#C7C9D9"/></svg><svg fill="none" viewBox="0 0 24 24" id="include--footer-socials-title-icon" xmlns="http://www.w3.org/2000/svg"><path d="M8 5h8a4 4 0 014 4v4a4 4 0 01-4 4h-4l-4 3v-3a4 4 0 01-4-4V9a4 4 0 014-4z" stroke="#C7C9D9" stroke-linecap="round" stroke-linejoin="round"/><g opacity=".3"><mask id="ava" fill="#fff"><path fill-rule="evenodd" clip-rule="evenodd" d="M8 9.125a.5.5 0 000 1h8a.5.5 0 000-1H8zm0 2.75a.5.5 0 000 1h7a.5.5 0 000-1H8z"/></mask><path d="M8.5 9.625a.5.5 0 01-.5.5v-2a1.5 1.5 0 00-1.5 1.5h2zm-.5-.5a.5.5 0 01.5.5h-2a1.5 1.5 0 001.5 1.5v-2zm8 0H8v2h8v-2zm-.5.5a.5.5 0 01.5-.5v2a1.5 1.5 0 001.5-1.5h-2zm.5.5a.5.5 0 01-.5-.5h2a1.5 1.5 0 00-1.5-1.5v2zm-8 0h8v-2H8v2zm.5 2.25a.5.5 0 01-.5.5v-2a1.5 1.5 0 00-1.5 1.5h2zm-.5-.5a.5.5 0 01.5.5h-2a1.5 1.5 0 001.5 1.5v-2zm7 0H8v2h7v-2zm-.5.5a.5.5 0 01.5-.5v2a1.5 1.5 0 001.5-1.5h-2zm.5.5a.5.5 0 01-.5-.5h2a1.5 1.5 0 00-1.5-1.5v2zm-7 0h7v-2H8v2z" fill="#CDF" mask="url(#ava)"/></g></svg><svg fill="none" viewBox="0 0 24 24" id="include--footer-subscribe-title-icon" xmlns="http://www.w3.org/2000/svg"><path stroke="#C7C9D9" stroke-linecap="round" stroke-linejoin="round" d="M2 5h20v14H2z"/><path d="M2 5l10 9 10-9M2 19l7-8" stroke="#C7C9D9"/><path clip-rule="evenodd" d="M22 19l-7-8 7 8z" stroke="#C7C9D9"/></svg><svg fill="none" viewBox="0 0 25 24" id="include--grid-view-icon" xmlns="http://www.w3.org/2000/svg"><path d="M.5 4a4 4 0 014-4h16a4 4 0 014 4v16a4 4 0 01-4 4h-16a4 4 0 01-4-4V4z" fill="#F2F2F5"/><path stroke="#28293D" stroke-linejoin="round" d="M3.5 3h7v7h-7zm11 0h7v7h-7zm-11 11h7v7h-7zm11 0h7v7h-7z"/></svg><svg fill="none" viewBox="0 0 17 18" id="include--header-btns-account" xmlns="http://www.w3.org/2000/svg"><path d="M.5 17c0-3 4-3 6-5 1-1-2-1-2-6 0-3.333 1.333-5 4-5s4 1.667 4 5c0 5-3 5-2 6 2 2 6 2 6 5" stroke="#1C1C28" stroke-linecap="round"/></svg><svg fill="none" viewBox="0 0 16 16" id="include--header-btns-cart" xmlns="http://www.w3.org/2000/svg"><path stroke="#1C1C28" stroke-linecap="round" stroke-linejoin="round" d="M1.438 4.444h13.125v10.667H1.438z"/><path d="M4.25 4.444C4.25 2.481 5.929.89 8 .89c2.071 0 3.75 1.592 3.75 3.555" stroke="#1C1C28" stroke-linecap="round" stroke-linejoin="round"/></svg><svg fill="none" viewBox="0 0 20 18" id="include--header-btns-compare" xmlns="http://www.w3.org/2000/svg"><path d="M15.03.53l3.352 3.176-3.353 3.176M1.618 3.706h15.647M4.97 17.47l-3.352-3.176 3.353-3.176m13.411 3.176H2.735" stroke="#1C1C28" stroke-linecap="round"/></svg><svg fill="none" viewBox="0 0 23 15" id="include--header-btns-viewed" xmlns="http://www.w3.org/2000/svg"><path d="M21.75 7.5s-3 6-10 6-10-6-10-6 3-6 10-6 10 6 10 6z" stroke="#28293D" stroke-linecap="round"/><circle cx="11.75" cy="7.5" r="3" stroke="#28293D" stroke-linecap="round"/></svg><svg fill="none" viewBox="0 0 20 18" id="include--header-btns-wishlist" xmlns="http://www.w3.org/2000/svg"><path d="M10 17l-1.305-1.151C4.06 11.777 1 9.092 1 5.796 1 3.11 3.178 1 5.95 1c1.566 0 3.069.706 4.05 1.822A5.462 5.462 0 0114.05 1C16.822 1 19 3.11 19 5.796c0 3.296-3.06 5.981-7.695 10.062L10 17z" stroke="#1C1C28"/></svg><svg fill="none" viewBox="0 0 20 20" id="include--header-seacrh-icon" xmlns="http://www.w3.org/2000/svg"><path d="M8.833 17c2.156 0 4.426-.927 5.834-2.333l4.666 4.666-4.666-4.666C16.029 13.327 17 10.808 17 8.833A8.167 8.167 0 108.833 17z" stroke="#1C1C28" stroke-linecap="round" stroke-linejoin="round"/></svg><svg fill="none" viewBox="0 0 8 6" id="include--input-sort" xmlns="http://www.w3.org/2000/svg"><path d="M.5 1.25l3.493 3.5L7.5 1.25" stroke="#555770" stroke-linecap="round" stroke-linejoin="round"/></svg><svg fill="none" viewBox="0 0 20 20" id="include--instagram-icon" xmlns="http://www.w3.org/2000/svg"><path fill-rule="evenodd" clip-rule="evenodd" d="M6.22.887C7.199.842 7.51.832 10 .832c2.49 0 2.802.01 3.778.055.977.044 1.644.2 2.227.426a4.51 4.51 0 011.623 1.058 4.477 4.477 0 011.057 1.623c.227.583.382 1.25.427 2.225.045.979.055 1.29.055 3.78 0 2.49-.011 2.801-.055 3.779-.045.975-.2 1.641-.427 2.225a4.497 4.497 0 01-1.057 1.624 4.495 4.495 0 01-1.623 1.057c-.583.226-1.25.381-2.225.426-.978.045-1.29.055-3.78.055-2.49 0-2.802-.01-3.78-.055-.974-.044-1.64-.2-2.224-.426a4.496 4.496 0 01-1.624-1.057 4.492 4.492 0 01-1.058-1.623c-.226-.584-.38-1.25-.426-2.225-.045-.98-.055-1.291-.055-3.78 0-2.49.011-2.802.055-3.779.044-.976.2-1.643.426-2.226A4.497 4.497 0 012.372 2.37a4.493 4.493 0 011.623-1.057c.583-.226 1.25-.381 2.225-.426zm7.484 1.65c-.967-.044-1.257-.053-3.704-.053-2.448 0-2.738.009-3.704.053-.894.04-1.38.19-1.703.316a2.847 2.847 0 00-1.054.685 2.843 2.843 0 00-.685 1.054c-.126.323-.275.808-.316 1.703-.044.966-.053 1.256-.053 3.704 0 2.447.01 2.737.053 3.704.041.894.19 1.379.316 1.702.147.398.38.759.685 1.054.296.305.657.539 1.054.686.324.125.809.274 1.703.315.966.044 1.256.054 3.704.054 2.448 0 2.737-.01 3.704-.054.894-.04 1.38-.19 1.703-.316a2.846 2.846 0 001.054-.684c.304-.296.538-.657.685-1.055.126-.323.275-.808.316-1.702.044-.967.053-1.257.053-3.704 0-2.448-.01-2.738-.053-3.704-.041-.895-.19-1.38-.316-1.703a2.847 2.847 0 00-.685-1.054 2.844 2.844 0 00-1.054-.685c-.324-.126-.809-.275-1.703-.316zM8.83 12.825a3.057 3.057 0 102.2-5.705 3.058 3.058 0 00-2.2 5.705z" fill="#28293D"/><path fill-rule="evenodd" clip-rule="evenodd" d="M6.668 6.667a4.712 4.712 0 116.664 6.664 4.712 4.712 0 01-6.664-6.664zm9.089-.678a1.114 1.114 0 10-1.529-1.62 1.114 1.114 0 001.529 1.62z" fill="#28293D"/></svg><svg fill="none" viewBox="0 0 25 24" id="include--list-view-icon" xmlns="http://www.w3.org/2000/svg"><path d="M10.5 7h8m-8 5h8m-8 5h8" stroke="#C7C9D9" stroke-linecap="round"/><path fill-rule="evenodd" clip-rule="evenodd" d="M6.5 8a1 1 0 100-2 1 1 0 000 2zm0 5a1 1 0 100-2 1 1 0 000 2zm0 5a1 1 0 100-2 1 1 0 000 2z" fill="#C7C9D9"/></svg><svg fill="none" viewBox="0 0 12 6" id="include--location-chevron" xmlns="http://www.w3.org/2000/svg"><path d="M1 .5l4.99 5L11 .5" stroke="#555770" stroke-linecap="round" stroke-linejoin="round"/></svg><svg fill="none" viewBox="0 0 35 20" id="include--mastercard-icon" xmlns="http://www.w3.org/2000/svg"><path d="M28.843 16.844c0 .303-.274.522-.669.522-.406 0-.668-.232-.668-.522 0-.29.262-.523.668-.523.395 0 .67.233.67.523zM10.28 16.32c-.425 0-.67.233-.67.523 0 .29.245.522.67.522.388 0 .65-.219.65-.522-.005-.29-.262-.523-.65-.523zm7.018-.013c-.323 0-.52.156-.568.388h1.141c-.054-.254-.263-.388-.573-.388zm6.439.013c-.407 0-.651.233-.651.523 0 .29.244.522.65.522.407 0 .67-.219.67-.522 0-.29-.263-.523-.67-.523zm6.325 1.166c0 .013.018.022.018.049 0 .013-.018.022-.018.049-.018.013-.018.022-.03.035a.087.087 0 01-.066.023c-.018.013-.03.013-.065.013-.018 0-.03 0-.066-.013-.018 0-.03-.014-.048-.023-.018-.013-.03-.022-.03-.035-.018-.023-.018-.036-.018-.05 0-.022 0-.035.018-.048 0-.023.018-.036.03-.05.018-.013.03-.013.048-.022.03-.013.048-.013.066-.013.03 0 .047 0 .065.013.03.014.048.014.066.023.018.008.012.026.03.049zm-.132.062c.03 0 .03-.013.048-.013.018-.014.018-.023.018-.036 0-.013 0-.022-.018-.036-.018 0-.03-.013-.065-.013h-.096v.156h.048v-.062h.018l.065.062h.048l-.066-.058zm4.474-15.406v15.714c0 1.183-1.284 2.143-2.867 2.143H2.867C1.284 20 0 19.04 0 17.857V2.143C0 .96 1.284 0 2.867 0h28.67c1.583 0 2.867.96 2.867 2.143zM3.823 8.375c0 3.415 3.709 6.183 8.272 6.183 1.625 0 3.22-.366 4.57-1.031-4.355-2.647-4.325-7.643 0-10.29-1.35-.67-2.945-1.032-4.57-1.032-4.563-.004-8.272 2.768-8.272 6.17zm13.38 4.857c4.21-2.455 4.192-7.24 0-9.71-4.194 2.47-4.212 7.26 0 9.71zm-8.5 3.406c0-.388-.34-.643-.878-.656-.275 0-.568.063-.765.29-.143-.183-.388-.29-.729-.29a.866.866 0 00-.633.241v-.196h-.49v1.638h.49c0-.844-.15-1.348.538-1.348.609 0 .49.455.49 1.348h.471c0-.817-.149-1.348.538-1.348.61 0 .49.446.49 1.348h.49v-1.027h-.012zm2.681-.611h-.471v.196c-.162-.147-.389-.24-.7-.24-.614 0-1.086.365-1.086.86 0 .5.472.862 1.087.862.31 0 .537-.084.699-.24v.205h.471v-1.643zm2.42 1.143c0-.67-1.368-.366-1.368-.679 0-.254.71-.214 1.105-.049l.197-.29c-.562-.273-1.804-.268-1.804.366 0 .638 1.368.37 1.368.67 0 .28-.807.258-1.237.035l-.209.282c.67.339 1.947.267 1.947-.335zm2.114.415l-.131-.304c-.227.094-.73.197-.73-.183v-.74h.783v-.331h-.782v-.5h-.49v.5h-.454v.326h.454v.745c0 .786 1.033.643 1.35.487zm.794-.598h1.643c0-.724-.442-1.01-1.04-1.01-.633 0-1.087.353-1.087.862 0 .916 1.35 1.067 2.02.634l-.228-.268c-.465.286-1.17.26-1.308-.218zm3.53-.96c-.274-.09-.693-.08-.908.196v-.196h-.49v1.638h.49v-.924c0-.518.568-.45.765-.375l.143-.34zm.633.817c0-.51.693-.674 1.237-.375l.227-.29c-.693-.407-1.953-.183-1.953.67 0 .883 1.338 1.062 1.953.669l-.227-.29c-.55.29-1.236.116-1.236-.384zm3.985-.817h-.49v.196c-.496-.49-1.786-.214-1.786.62 0 .858 1.338 1.103 1.786.621v.206h.49v-1.643zm2.012 0c-.143-.054-.657-.13-.907.196v-.196h-.472v1.638h.472v-.924c0-.491.537-.46.764-.375l.143-.34zm2.407-.665h-.471v.861c-.49-.486-1.786-.227-1.786.62 0 .867 1.344 1.099 1.786.621v.206h.471v-2.308zm.454-3.353v.205h.048v-.205h.114v-.036h-.275v.036h.113zm.395 5.527c0-.023 0-.05-.018-.072-.018-.013-.03-.035-.048-.049-.018-.013-.048-.022-.066-.035-.03 0-.066-.014-.095-.014-.018 0-.048.014-.084.014a.325.325 0 00-.066.035c-.03.014-.048.036-.048.05-.017.022-.017.048-.017.07 0 .014 0 .036.017.063 0 .014.018.036.048.05.018.013.03.022.066.035a.21.21 0 00.084.013c.03 0 .065 0 .095-.013.018-.013.048-.022.066-.036.018-.013.03-.035.048-.049.018-.027.018-.049.018-.062zm.19-5.567h-.083l-.095.156-.096-.156h-.084v.24h.048v-.182l.096.156h.065l.084-.156v.183h.066v-.241zm.264-3.594c0-3.402-3.71-6.174-8.273-6.174-1.625 0-3.22.366-4.57 1.031 4.307 2.647 4.373 7.656 0 10.29 1.35.67 2.957 1.032 4.57 1.032 4.563.004 8.273-2.764 8.273-6.179z" fill="#fff"/></svg><svg fill="none" viewBox="0 0 6 12" id="include--menu-chevron" xmlns="http://www.w3.org/2000/svg"><path d="M.5 11l5-4.99L.5 1" stroke="#555770" stroke-linecap="round" stroke-linejoin="round"/></svg><svg fill="none" viewBox="0 0 24 24" id="include--messenger-icon" xmlns="http://www.w3.org/2000/svg"><path fill-rule="evenodd" clip-rule="evenodd" d="M12.942 14.413l-2.56-2.66L5.45 14.48l5.406-5.736 2.56 2.66 4.93-2.727-5.405 5.736h.001zM11.899 2C6.432 2 2 6.144 2 11.257c0 2.908 1.434 5.503 3.678 7.2V22l3.378-1.874c.9.252 1.855.388 2.843.388 5.468 0 9.9-4.145 9.9-9.257 0-5.113-4.432-9.257-9.9-9.257z" fill="#E5F0FF"/></svg><svg fill="none" viewBox="0 0 11 11" id="include--module-comments-icon" xmlns="http://www.w3.org/2000/svg"><path fill-rule="evenodd" clip-rule="evenodd" d="M9.565.687H.957c-.395 0-.718.338-.718.75v6c0 .413.323.75.718.75H2.39v2.625l2.511-2.625h4.663c.395 0 .718-.337.718-.75v-6c0-.412-.323-.75-.718-.75zm0 6.75H4.543l-1.434 1.5v-1.5H.957v-6h8.608v6z" fill="#C7C9D9"/></svg><svg fill="none" viewBox="0 0 14 13" id="include--module-star-icon" xmlns="http://www.w3.org/2000/svg"><path d="M6.392.474a.5.5 0 01.955 0l1.131 3.64a.5.5 0 00.478.351h3.706a.5.5 0 01.303.898L9.928 7.67a.5.5 0 00-.175.546l1.151 3.702a.5.5 0 01-.78.547l-2.952-2.242a.5.5 0 00-.605 0l-2.952 2.242a.5.5 0 01-.78-.547l1.15-3.702a.5.5 0 00-.174-.546L.774 5.363a.5.5 0 01.303-.898h3.706a.5.5 0 00.478-.351L6.392.474z" fill="#C7C9D9"/></svg><svg fill="none" viewBox="0 0 13 13" id="include--module-star-icon-is" xmlns="http://www.w3.org/2000/svg"><path d="M6.088.474a.5.5 0 01.955 0l1.13 3.64a.5.5 0 00.478.351h3.707a.5.5 0 01.302.898L9.624 7.67a.5.5 0 00-.175.546l1.15 3.702a.5.5 0 01-.78.547l-2.951-2.242a.5.5 0 00-.605 0L3.31 12.465a.5.5 0 01-.78-.547l1.15-3.702a.5.5 0 00-.175-.546L.47 5.363a.5.5 0 01.302-.898H4.48a.5.5 0 00.477-.351L6.088.474z" fill="#FC0"/></svg><svg fill="none" viewBox="0 0 18 18" id="include--notify-close-icon" xmlns="http://www.w3.org/2000/svg"><g clip-path="url(#boclip0_2750_34753)" fill="#555770"><path d="M17.072 0L18 .928.928 17.999 0 17.072 17.072 0z"/><path d="M.928 0L18 17.072l-.928.928L0 .928.928 0z"/></g><defs><clipPath id="boclip0_2750_34753"><rect width="18" height="18" rx="9" fill="#fff"/></clipPath></defs></svg><svg fill="none" viewBox="0 0 34 20" id="include--paypal-icon" xmlns="http://www.w3.org/2000/svg"><path d="M10.716 10.098c0 .545-.558.96-1.266.96-.529 0-.92-.232-.92-.67 0-.544.546-.982 1.248-.982.535 0 .938.255.938.692zM4.63 7.933h-.27c-.086 0-.173.045-.184.12l-.248 1.193.472-.014c.633 0 1.122-.067 1.237-.634.132-.598-.357-.665-1.007-.665zm16.335 0h-.259c-.103 0-.172.045-.184.12l-.241 1.193.46-.014c.747 0 1.265-.134 1.265-.803-.006-.474-.552-.496-1.04-.496zm12.165-5.79v15.714c0 1.183-1.237 2.143-2.76 2.143H2.76C1.238 20 0 19.04 0 17.857V2.143C0 .96 1.237 0 2.76 0h27.61c1.523 0 2.76.96 2.76 2.143zM7.38 8.188c0-.938-.932-1.25-1.996-1.25H3.083c-.144 0-.288.089-.3.21l-.942 4.557c-.018.09.069.179.184.179h1.092c.156 0 .3-.13.317-.255l.259-1.187c.057-.322.759-.21 1.035-.21 1.645 0 2.651-.759 2.651-2.044zm4.842.392H11.13c-.219 0-.23.246-.242.366-.334-.379-.817-.446-1.363-.446-1.41 0-2.485.96-2.485 2.018 0 .87.702 1.437 1.823 1.437.518 0 1.162-.218 1.525-.53a.953.953 0 00-.058.276c0 .103.058.178.184.178h.99a.343.343 0 00.316-.254l.586-2.87c.018-.085-.069-.175-.184-.175zm2.33 4.37l3.664-4.133c.028-.022.028-.045.028-.076 0-.076-.086-.156-.183-.156h-1.105a.356.356 0 00-.259.111l-1.524 1.742-.633-1.675c-.046-.098-.172-.178-.316-.178H13.15c-.098 0-.185.08-.185.156 0 .054 1.122 2.536 1.22 2.772-.155.17-1.18 1.277-1.18 1.411 0 .08.087.143.185.143h1.104a.367.367 0 00.259-.116zm9.162-4.762c0-.938-.931-1.25-1.995-1.25h-2.284c-.155 0-.299.089-.316.21l-.932 4.553c-.012.09.075.178.184.178h1.18c.114 0 .2-.066.23-.142l.258-1.295c.058-.322.76-.21 1.035-.21 1.634 0 2.64-.759 2.64-2.044zm4.843.392h-1.092c-.219 0-.23.246-.248.366-.316-.379-.805-.446-1.363-.446-1.41 0-2.485.96-2.485 2.018 0 .87.702 1.437 1.824 1.437.534 0 1.179-.218 1.524-.53-.017.066-.058.209-.058.276 0 .103.058.178.184.178h.995a.344.344 0 00.317-.254l.586-2.87c.018-.085-.069-.175-.184-.175zm2.733-1.486c0-.09-.087-.157-.185-.157h-1.064c-.086 0-.172.054-.184.121l-.931 4.643-.018.022c0 .08.086.156.202.156h.949c.143 0 .287-.129.299-.254l.931-4.518v-.013zm-5.177 2.312c-.702 0-1.248.433-1.248.982 0 .433.402.67.932.67.69 0 1.248-.41 1.248-.96.005-.437-.397-.692-.932-.692z" fill="#fff"/></svg><svg fill="none" viewBox="0 0 20 20" id="include--phone-icon" xmlns="http://www.w3.org/2000/svg"><path d="M10.617 15.336l2.039-2.038a1 1 0 011.279-.113l2.685 1.873a.996.996 0 01.135 1.52v0c-.707.708-1.723 1.015-2.671.695-1.762-.594-4.724-1.878-7.2-4.354-2.475-2.475-3.76-5.437-4.353-7.2-.32-.947-.013-1.963.694-2.67v0a.996.996 0 011.521.135L6.62 5.869a1 1 0 01-.113 1.28L4.468 9.186" stroke="#28293D" stroke-linecap="round"/></svg><svg fill="none" viewBox="0 0 16 16" id="include--prev-slide-icon" xmlns="http://www.w3.org/2000/svg"><path d="M10 12L6 7.992 10 4" stroke="#28293D" stroke-linecap="round" stroke-linejoin="round"/></svg><svg fill="none" viewBox="0 0 25 24" id="include--price-view-icon" xmlns="http://www.w3.org/2000/svg"><path d="M6.5 7h12m-12 5h12m-12 5h12" stroke="#C7C9D9" stroke-linecap="round"/></svg><svg fill="none" viewBox="0 0 32 32" id="include--product-advantage-icon-delivery" xmlns="http://www.w3.org/2000/svg"><path d="M5.333 22.667H2.667V9.333H20v13.334h-9.333m16 0h2.666V16.74L26.667 12H20v10.667h1.333" stroke="#8F90A6" stroke-linecap="round"/><circle cx="8" cy="22.667" stroke="#8F90A6" r="2.667"/><circle cx="24" cy="22.667" stroke="#8F90A6" r="2.667"/></svg><svg fill="none" viewBox="0 0 32 32" id="include--product-advantage-icon-guarantees" xmlns="http://www.w3.org/2000/svg"><path clip-rule="evenodd" d="M8 2.667v12a8 8 0 008 8v0a8 8 0 008-8v-12H8z" stroke="#8F90A6" stroke-linecap="round"/><path d="M9.333 28h13.334" stroke="#8F90A6" stroke-linecap="round"/><path d="M16 22.667V28" stroke="#8F90A6"/><path clip-rule="evenodd" d="M8 6.667H6.667a4 4 0 00-4 4v0a4 4 0 004 4H8v-8zm16 8h1.333a4 4 0 004-4v0a4 4 0 00-4-4H24v8z" stroke="#8F90A6" stroke-linecap="round"/></svg><svg fill="none" viewBox="0 0 32 32" id="include--product-advantage-icon-payment" xmlns="http://www.w3.org/2000/svg"><path d="M16 5.333V8m0 16v2.667m4.667-16S20 8 16 8s-4.667 2.609-4.667 4c0 5.52 9.334 2.62 9.334 8 0 1.391-.667 4-4.667 4s-4.667-2.667-4.667-2.667" stroke="#8F90A6" stroke-linecap="round"/></svg><svg fill="none" viewBox="0 0 16 13" id="include--product-content-attrs-icon" xmlns="http://www.w3.org/2000/svg"><path d="M6.833 1.083H15.5M6.833 6.5H15.5m-8.667 5.417H15.5" stroke="#28293D" stroke-linecap="round"/><path fill-rule="evenodd" clip-rule="evenodd" d="M2 2.5a1 1 0 100-2 1 1 0 000 2z" fill="#28293D"/><path fill-rule="evenodd" clip-rule="evenodd" d="M2 7.5a1 1 0 100-2 1 1 0 000 2z" fill="#28293D" stroke="#28293D"/><path fill-rule="evenodd" clip-rule="evenodd" d="M2 12.5a1 1 0 100-2 1 1 0 000 2z" fill="#28293D"/></svg><svg fill="none" viewBox="0 0 18 18" id="include--product-content-description-icon" xmlns="http://www.w3.org/2000/svg"><path d="M9 11.25V9" stroke="#28293D" stroke-linecap="round"/><path fill-rule="evenodd" clip-rule="evenodd" d="M9 6a.75.75 0 100 1.5A.75.75 0 009 6z" fill="#28293D"/><path clip-rule="evenodd" d="M9 16.5a7.5 7.5 0 100-15 7.5 7.5 0 000 15z" stroke="#28293D"/></svg><svg fill="none" viewBox="0 0 19 18" id="include--product-content-faq-icon" xmlns="http://www.w3.org/2000/svg"><path d="M6.333 3.75h6.334c1.749 0 3.166 1.343 3.166 3v3c0 1.657-1.417 3-3.166 3H9.5L6.333 15v-2.25c-1.749 0-3.166-1.343-3.166-3v-3c0-1.657 1.417-3 3.166-3z" stroke="#28293D" stroke-linecap="round" stroke-linejoin="round"/><g opacity=".3"><mask id="bya" fill="#fff"><path fill-rule="evenodd" clip-rule="evenodd" d="M6.333 6.719a.5.5 0 000 1h6.334a.5.5 0 100-1H6.333zm0 2.062a.5.5 0 000 1h5.542a.5.5 0 000-1H6.333z"/></mask><path d="M6.833 7.219a.5.5 0 01-.5.5v-2a1.5 1.5 0 00-1.5 1.5h2zm-.5-.5a.5.5 0 01.5.5h-2a1.5 1.5 0 001.5 1.5v-2zm6.334 0H6.333v2h6.334v-2zm-.5.5a.5.5 0 01.5-.5v2a1.5 1.5 0 001.5-1.5h-2zm.5.5a.5.5 0 01-.5-.5h2a1.5 1.5 0 00-1.5-1.5v2zm-6.334 0h6.334v-2H6.333v2zm.5 1.562a.5.5 0 01-.5.5v-2a1.5 1.5 0 00-1.5 1.5h2zm-.5-.5a.5.5 0 01.5.5h-2a1.5 1.5 0 001.5 1.5v-2zm5.542 0H6.333v2h5.542v-2zm-.5.5a.5.5 0 01.5-.5v2a1.5 1.5 0 001.5-1.5h-2zm.5.5a.5.5 0 01-.5-.5h2a1.5 1.5 0 00-1.5-1.5v2zm-5.542 0h5.542v-2H6.333v2z" fill="#28293D" mask="url(#bya)"/></g></svg><svg fill="none" viewBox="0 0 16 17" id="include--product-content-info-icon" xmlns="http://www.w3.org/2000/svg"><path fill-rule="evenodd" clip-rule="evenodd" d="M8 15.956c4.091 0 7.407-3.338 7.407-7.456S12.091 1.044 8 1.044.593 4.382.593 8.5 3.909 15.956 8 15.956z" fill="#F8F9FA" stroke="#28293D"/><path fill-rule="evenodd" clip-rule="evenodd" d="M8 12.974c.41 0 .74-.334.74-.746a.743.743 0 00-.74-.745c-.41 0-.74.333-.74.745s.33.746.74.746z" fill="#28293D"/><path d="M8 9.991C8 8.5 9.167 8.251 9.57 7.847c.403-.405.652-.965.652-1.584A2.23 2.23 0 008 4.026a2.21 2.21 0 00-1.667.757 2.238 2.238 0 00-.432.742" stroke="#28293D" stroke-linecap="round"/></svg><svg fill="none" viewBox="0 0 13 14" id="include--product-content-reviews-icon" xmlns="http://www.w3.org/2000/svg"><path d="M6.175 1.036a.5.5 0 01.955 0l1.13 3.64a.5.5 0 00.478.352h3.707a.5.5 0 01.302.898L9.711 8.232a.5.5 0 00-.175.547l1.15 3.702a.5.5 0 01-.78.546l-2.951-2.242a.5.5 0 00-.605 0l-2.952 2.242a.5.5 0 01-.78-.546l1.15-3.702a.5.5 0 00-.175-.547L.557 5.926a.5.5 0 01.302-.898h3.707a.5.5 0 00.477-.352l1.132-3.64z" fill="#28293D"/></svg><svg fill="none" viewBox="0 0 24 24" id="include--product-tab-attr-icon" xmlns="http://www.w3.org/2000/svg"><path d="M10 7h8m-8 5h8m-8 5h8" stroke="#8F90A6" stroke-linecap="round"/><path fill-rule="evenodd" clip-rule="evenodd" d="M6 8a1 1 0 100-2 1 1 0 000 2z" fill="#8F90A6"/><path fill-rule="evenodd" clip-rule="evenodd" d="M6 13a1 1 0 100-2 1 1 0 000 2z" fill="#8F90A6" stroke="#8F90A6"/><path fill-rule="evenodd" clip-rule="evenodd" d="M6 18a1 1 0 100-2 1 1 0 000 2z" fill="#8F90A6"/></svg><svg fill="none" viewBox="0 0 24 24" id="include--product-tab-delivery-icon" xmlns="http://www.w3.org/2000/svg"><path d="M4 17H2V7h13v10H8m12 0h2v-4.444L20 9h-5v8h1" stroke="#8F90A6" stroke-linecap="round"/><circle cx="6" cy="17" r="2" stroke="#8F90A6"/><circle cx="18" cy="17" r="2" stroke="#8F90A6"/></svg><svg fill="none" viewBox="0 0 24 24" id="include--product-tab-extra-icon" xmlns="http://www.w3.org/2000/svg"><path d="M12 14c0-2 1.576-2.335 2.119-2.876a3 3 0 10-4.952-3.113" stroke="#8F90A6" stroke-linecap="round"/><path fill-rule="evenodd" clip-rule="evenodd" d="M12 18a1 1 0 100-2 1 1 0 000 2z" fill="#8F90A6"/><path clip-rule="evenodd" d="M12 22c5.523 0 10-4.477 10-10S17.523 2 12 2 2 6.477 2 12s4.477 10 10 10z" stroke="#8F90A6"/></svg><svg fill="none" viewBox="0 0 24 24" id="include--product-tab-faq-icon" xmlns="http://www.w3.org/2000/svg"><path d="M8 5h8a4 4 0 014 4v4a4 4 0 01-4 4h-4l-4 3v-3a4 4 0 01-4-4V9a4 4 0 014-4z" stroke="#8F90A6" stroke-linecap="round" stroke-linejoin="round"/><g opacity=".3"><mask id="cea" fill="#fff"><path fill-rule="evenodd" clip-rule="evenodd" d="M8 9.125a.5.5 0 000 1h8a.5.5 0 000-1H8zm0 2.75a.5.5 0 000 1h7a.5.5 0 000-1H8z"/></mask><path d="M8.5 9.625a.5.5 0 01-.5.5v-2a1.5 1.5 0 00-1.5 1.5h2zm-.5-.5a.5.5 0 01.5.5h-2a1.5 1.5 0 001.5 1.5v-2zm8 0H8v2h8v-2zm-.5.5a.5.5 0 01.5-.5v2a1.5 1.5 0 001.5-1.5h-2zm.5.5a.5.5 0 01-.5-.5h2a1.5 1.5 0 00-1.5-1.5v2zm-8 0h8v-2H8v2zm.5 2.25a.5.5 0 01-.5.5v-2a1.5 1.5 0 00-1.5 1.5h2zm-.5-.5a.5.5 0 01.5.5h-2a1.5 1.5 0 001.5 1.5v-2zm7 0H8v2h7v-2zm-.5.5a.5.5 0 01.5-.5v2a1.5 1.5 0 001.5-1.5h-2zm.5.5a.5.5 0 01-.5-.5h2a1.5 1.5 0 00-1.5-1.5v2zm-7 0h7v-2H8v2z" fill="#8F90A6" mask="url(#cea)"/></g></svg><svg fill="none" viewBox="0 0 24 24" id="include--product-tab-info-icon" xmlns="http://www.w3.org/2000/svg"><path d="M12 15v-3" stroke="#8F90A6" stroke-linecap="round"/><path fill-rule="evenodd" clip-rule="evenodd" d="M12 8a1 1 0 100 2 1 1 0 000-2z" fill="#8F90A6"/><path clip-rule="evenodd" d="M12 22c5.523 0 10-4.477 10-10S17.523 2 12 2 2 6.477 2 12s4.477 10 10 10z" stroke="#8F90A6" stroke-linecap="round"/></svg><svg fill="none" viewBox="0 0 24 24" id="include--product-tab-payment-icon" xmlns="http://www.w3.org/2000/svg"><path d="M12 4v2m0 12v2m3.5-12S15 6 12 6 8.5 7.957 8.5 9c0 4.14 7 1.965 7 6 0 1.044-.5 3-3.5 3s-3.5-2-3.5-2" stroke="#8F90A6" stroke-linecap="round"/></svg><svg fill="none" viewBox="0 0 24 24" id="include--product-tab-reviews-icon" xmlns="http://www.w3.org/2000/svg"><path fill="#fff" d="M0 0h24v24H0z"/><path clip-rule="evenodd" d="M12 17.844l-5.817 3.058 1.111-6.477-4.706-4.587 6.504-.945L12 3l2.908 5.893 6.504.945-4.706 4.587 1.11 6.477L12 17.844z" stroke="#8F90A6" stroke-linecap="round" stroke-linejoin="round"/></svg><svg fill="none" viewBox="0 0 20 20" id="include--quantity-minus-icon" xmlns="http://www.w3.org/2000/svg"><path d="M16.667 10H3.333" stroke="#1C1C28" stroke-linecap="round"/></svg><svg fill="none" viewBox="0 0 20 20" id="include--quantity-plus-icon" xmlns="http://www.w3.org/2000/svg"><path d="M16.667 10H3.333M10 3.333v13.333" stroke="#1C1C28" stroke-linecap="round"/></svg><svg fill="none" viewBox="0 0 50 50" id="include--review-author-icon" xmlns="http://www.w3.org/2000/svg"><circle cx="25" cy="25" r="25" fill="#F2F4F8"/><path d="M28.71 25.71a6 6 0 10-7.42 0 10 10 0 00-6.22 8.18 1.007 1.007 0 002 .22 8 8 0 0115.9 0 1 1 0 001 .89h.11a1 1 0 00.88-1.1 10 10 0 00-6.25-8.19zM25 25a4 4 0 110-8 4 4 0 010 8z" fill="#C7C9D9"/></svg><svg fill="none" viewBox="0 0 24 24" id="include--show-more-icon" xmlns="http://www.w3.org/2000/svg"><path d="M22 12l-3 3-3-3M2 12l3-3 3 3" stroke="#28293D" stroke-linecap="round"/><path d="M19 15l.016-2.95A7.05 7.05 0 008 6.22m8.016 11.625A7.05 7.05 0 015 12.015V9v0" stroke="#28293D" stroke-linecap="round"/></svg><svg fill="none" viewBox="0 0 8 15" id="include--sidebar-phone-icon" xmlns="http://www.w3.org/2000/svg"><path d="M4.438.097c.812-.118 1.924-.195 2.35.17.704.603.704 4.42-.704 4.42-.709 0-1.174-.629-1.878-.026-.692.593-.703 1.656-.704 2.838-.001 1.182.011 2.244.704 2.838.704.603 1.169-.025 1.878-.025 1.407 0 1.407 3.816.704 4.419-.426.365-1.538.288-2.35.17-.543-.09-1.128-.317-1.875-1.048C1.54 12.758.706 11.102.687 7.557V7.44c.018-3.545.854-5.201 1.875-6.296C3.31.413 3.896.185 4.438.095v.002z" fill="#27AE60"/></svg><svg fill="none" viewBox="0 0 24 24" id="include--skype-icon" xmlns="http://www.w3.org/2000/svg"><path d="M8.25 3A5.26 5.26 0 003 8.25c0 .773.237 1.491.54 2.156A8.647 8.647 0 003.374 12c0 4.755 3.87 8.625 8.625 8.625.547 0 1.075-.067 1.594-.164.665.302 1.383.539 2.156.539A5.26 5.26 0 0021 15.75c0-.773-.237-1.491-.54-2.156A8.577 8.577 0 0020.626 12c0-4.755-3.87-8.625-8.625-8.625-.547 0-1.075.067-1.594.164C9.741 3.237 9.023 3 8.25 3zm0 1.5c.647 0 1.251.157 1.781.446a.75.75 0 00.516.07A7.19 7.19 0 0112 4.874 7.114 7.114 0 0119.125 12c0 .501-.044.982-.141 1.454a.75.75 0 00.07.515c.288.53.446 1.134.446 1.781 0 2.08-1.67 3.75-3.75 3.75a3.707 3.707 0 01-1.781-.445.75.75 0 00-.516-.07 7.187 7.187 0 01-1.453.14A7.115 7.115 0 014.875 12c0-.501.044-.982.141-1.454a.75.75 0 00-.07-.515A3.717 3.717 0 014.5 8.25c0-2.08 1.67-3.75 3.75-3.75zm3.633 2.367c-1.855 0-3.844.785-3.844 2.883 0 1.011.357 2.08 2.344 2.579l2.484.608c.747.185.938.607.938.985 0 .63-.624 1.242-1.758 1.242-2.215 0-1.931-1.687-3.117-1.687-.533 0-.915.366-.915.89 0 1.023 1.257 2.368 4.032 2.368 2.64 0 3.938-1.275 3.938-2.978 0-1.1-.507-2.25-2.508-2.694l-1.829-.423c-.694-.157-1.5-.354-1.5-1.007 0-.656.557-1.125 1.57-1.125 2.043 0 1.87 1.406 2.884 1.406.532 0 .984-.304.984-.844 0-1.26-1.995-2.203-3.703-2.203z" fill="#E5F0FF"/></svg><svg fill="none" viewBox="0 0 24 24" id="include--telegram-icon" xmlns="http://www.w3.org/2000/svg"><path d="M20.52 3.002c-.248.018-.49.076-.718.172h-.004c-.219.087-1.261.526-2.846 1.192l-5.68 2.397-8.082 3.412.048-.018s-.277.09-.565.289a1.565 1.565 0 00-.45.437 1.283 1.283 0 00-.214.856c.07.556.43.89.688 1.074.261.187.51.274.51.274h.007l3.757 1.268c.168.542 1.145 3.758 1.38 4.5.138.442.273.718.441.93.082.108.177.198.292.27.06.035.123.063.189.082l-.039-.01c.012.004.021.013.03.016.03.009.051.012.09.018.595.18 1.073-.19 1.073-.19l.027-.021 2.218-2.024 3.718 2.858.085.036c.774.34 1.56.151 1.974-.183a2.01 2.01 0 00.58-.768l.027-.07 2.873-14.747c.082-.363.102-.704.012-1.035a1.392 1.392 0 00-.6-.807 1.438 1.438 0 00-.822-.208zm-.078 1.58c-.003.049.006.043-.016.137v.008L17.58 19.321c-.012.02-.033.066-.09.111-.06.048-.107.078-.358-.021l-4.547-3.493-2.747 2.508.578-3.692 7.429-6.939c.306-.285.204-.345.204-.345.021-.35-.463-.102-.463-.102l-9.368 5.814-.003-.015-4.49-1.515v-.003l-.012-.002a.194.194 0 00.023-.01l.025-.012.024-.008 8.085-3.412c2.04-.861 4.096-1.729 5.677-2.398 1.581-.665 2.75-1.153 2.816-1.18.063-.024.033-.024.079-.024z" fill="#E5F0FF"/></svg><svg fill="none" viewBox="0 0 14 14" id="include--tiktok-icon" xmlns="http://www.w3.org/2000/svg"><path d="M7.875 0h1.732c.127.626.473 1.415 1.081 2.198.595.767 1.384 1.302 2.437 1.302v1.75c-1.534 0-2.686-.712-3.5-1.6v5.975A4.375 4.375 0 115.25 5.25V7a2.625 2.625 0 102.625 2.625V0z" fill="#28293D"/></svg><svg fill="none" viewBox="0 0 20 20" id="include--top-account-icon" xmlns="http://www.w3.org/2000/svg"><path d="M1 19c0-3.375 4.5-3.375 6.75-5.625C8.875 12.25 5.5 12.25 5.5 6.625 5.5 2.875 7 1 10 1s4.5 1.875 4.5 5.625c0 5.625-3.375 5.625-2.25 6.75C14.5 15.625 19 15.625 19 19" stroke="#C7C9D9" stroke-linecap="round"/></svg><svg fill="none" viewBox="0 0 12 12" id="include--top-dropdown-toggle" xmlns="http://www.w3.org/2000/svg"><path d="M3 4.5l2.994 3L9 4.5" stroke="#fff" stroke-linecap="round" stroke-linejoin="round"/></svg><svg fill="none" viewBox="0 0 20 20" id="include--top-location-icon" xmlns="http://www.w3.org/2000/svg"><path clip-rule="evenodd" d="M10 19s6-6.3 6-12A6 6 0 004 7c0 5.7 6 12 6 12z" stroke="#C7C9D9"/><path clip-rule="evenodd" d="M10 8a1 1 0 100-2 1 1 0 000 2z" stroke="#C7C9D9"/></svg><svg fill="none" viewBox="0 0 20 20" id="include--top-menu-icon" xmlns="http://www.w3.org/2000/svg"><rect y="1" width="15" height="1.2" rx=".6" fill="#C7C9D9"/><rect y="9.4" width="20" height="1.2" rx=".6" fill="#C7C9D9"/><rect y="17.8" width="11" height="1.2" rx=".6" fill="#C7C9D9"/></svg><svg fill="none" viewBox="0 0 8 13" id="include--twitter-icon" xmlns="http://www.w3.org/2000/svg"><path d="M7.94 12.195c-.358.368-1.315.805-2.562.805-3.177 0-3.866-2.255-3.866-3.57V5.774H.263A.26.26 0 010 5.52V3.793c0-.182.118-.345.297-.406 1.63-.553 2.144-1.93 2.217-2.973.021-.28.171-.414.424-.414h1.864a.26.26 0 01.263.254v2.925h2.183c.145 0 .263.112.263.251v2.075a.26.26 0 01-.263.254H5.055V9.14c0 .868.623 1.36 1.788.909.127-.049.237-.082.334-.056.092.023.153.086.195.2l.578 1.633c.048.127.087.27-.01.368z" fill="#fff"/></svg><svg fill="none" viewBox="0 0 24 24" id="include--viber-icon" xmlns="http://www.w3.org/2000/svg"><path d="M12.248 2c-1.66 0-5.77.167-7.955 2.175C2.72 5.598 2.108 7.773 2.02 10.367c-.174 4.1.787 6.693 2.36 8.031.35.251 1.224.92 2.885 1.423v2.091s0 .837.525 1.004c.087 0 .175.084.262.084.525 0 .962-.586 1.574-1.171.524-.586.961-1.004 1.223-1.423h1.924c1.66 0 5.769-.167 7.954-2.175 1.574-1.506 2.186-3.681 2.186-6.442.087-.418.087-.92.087-1.422-.087-3.096-1.049-5.188-2.36-6.359C20.115 3.59 17.843 2 12.947 2h-.699zm-.175 1.59h.787c4.633 0 6.381 1.422 6.556 1.59 1.049.836 1.66 2.677 1.748 5.103v.335c.088.502.088.92.088 1.17-.088 2.51-.612 4.184-1.661 5.272-1.836 1.59-5.682 1.673-6.731 1.673h-1.661L9.8 20.24l-.874.92-.175.251c-.174.168-.437.502-.612.586v-3.765c-1.748-.418-2.447-1.004-2.622-1.171-1.224-1.004-1.923-3.43-1.748-6.693V9.53c.175-2.008.699-3.347 1.573-4.267 1.836-1.59 5.682-1.673 6.731-1.673zm-.087 1.84c-.437 0-.437.586 0 .586 3.234 0 6.031 2.092 6.031 6.024 0 .418.612.418.612 0 0-4.267-2.972-6.693-6.643-6.61zm-3.465.774a.79.79 0 00-.555.146c-.875.418-1.75 1.256-1.487 2.177 0 0 .174.752 1.136 2.341.524.753.962 1.423 1.399 1.925.437.586 1.136 1.255 1.835 1.757 1.399 1.087 3.584 2.175 4.546 2.426.874.251 1.836-.586 2.273-1.422.175-.335.087-.753-.263-1.004-.524-.502-1.398-1.088-2.01-1.423-.437-.25-.962-.083-1.136.168l-.438.502c-.174.25-.611.25-.611.25-2.885-.752-3.672-3.597-3.672-3.597s0-.334.262-.585l.525-.419c.262-.167.437-.67.175-1.087-.175-.251-.437-.753-.7-1.004-.262-.335-.786-.92-.786-.92a.856.856 0 00-.493-.23zm4.077.9c-.438-.084-.525.585-.088.585 2.448.168 3.847 1.757 3.76 3.765-.088.418.611.418.611 0 .087-2.342-1.486-4.267-4.283-4.35zm.262 1.59c-.437-.084-.437.585 0 .585 1.049 0 1.573.586 1.573 1.59.088.418.7.418.7 0-.088-1.34-.874-2.176-2.273-2.176z" fill="#E5F0FF"/></svg><svg fill="none" viewBox="0 0 34 20" id="include--visa-icon" xmlns="http://www.w3.org/2000/svg"><path d="M27.909 8.897s.437 1.661.535 2.01h-1.921c.19-.398.92-1.943.92-1.943-.012.014.19-.406.305-.665l.16.598zM34 2.143v15.714C34 19.04 32.763 20 31.24 20H3.63c-1.523 0-2.76-.96-2.76-2.143V2.143C.87.96 2.107 0 3.63 0h27.61C32.762 0 34 .96 34 2.143zM9.641 13.357l3.636-6.928h-2.445l-2.26 4.732-.248-.96-.805-3.188c-.132-.442-.54-.567-1.047-.584H2.751l-.04.138c.908.179 1.72.437 2.427.763l2.059 6.027H9.64zm5.43.01l1.45-6.938h-2.313l-1.443 6.937h2.306zm8.047-2.269c.011-.79-.61-1.393-1.939-1.888-.81-.317-1.305-.531-1.305-.857.011-.295.42-.599 1.328-.599a4.958 4.958 0 011.72.264l.207.076.317-1.5a7.22 7.22 0 00-2.071-.295c-2.284 0-3.888.947-3.9 2.295-.017.995 1.15 1.549 2.025 1.884.891.339 1.196.562 1.196.861-.011.465-.725.679-1.386.679-.92 0-1.415-.112-2.168-.37l-.305-.112-.322 1.558c.54.192 1.541.361 2.576.37 2.428.005 4.01-.928 4.027-2.366zm8.121 2.268L29.376 6.43h-1.79c-.551 0-.971.125-1.207.575l-3.434 6.362h2.427s.397-.857.484-1.04h2.967c.07.245.276 1.04.276 1.04h2.14z" fill="#fff"/></svg><svg fill="none" viewBox="0 0 24 24" id="include--whatsapp-icon" xmlns="http://www.w3.org/2000/svg"><path d="M19.855 4.552a10.328 10.328 0 00-7.36-3.052C6.758 1.5 2.09 6.169 2.09 11.906c0 1.833.478 3.624 1.388 5.203L2 22.5l5.517-1.448c1.519.83 3.23 1.265 4.974 1.265h.004C18.228 22.317 23 17.648 23 11.911c0-2.78-1.181-5.39-3.145-7.36zm-7.36 16.012A8.634 8.634 0 018.09 19.36l-.314-.187-3.272.858.872-3.193-.206-.328a8.62 8.62 0 01-1.322-4.603c0-4.767 3.881-8.648 8.653-8.648 2.31 0 4.481.9 6.113 2.536 1.63 1.636 2.634 3.806 2.63 6.117 0 4.772-3.98 8.653-8.748 8.653zm4.744-6.478c-.258-.131-1.537-.76-1.777-.844-.239-.089-.412-.131-.585.131-.174.263-.67.844-.825 1.022-.15.174-.305.197-.563.066-1.528-.764-2.531-1.364-3.539-3.094-.267-.46.267-.426.764-1.42.084-.174.042-.324-.023-.455-.066-.131-.586-1.41-.802-1.931-.21-.506-.426-.436-.586-.445-.15-.01-.323-.01-.497-.01a.963.963 0 00-.693.324c-.24.262-.91.89-.91 2.17 0 1.28.933 2.517 1.06 2.69.13.174 1.832 2.8 4.443 3.929 1.65.712 2.297.773 3.122.651.502-.075 1.538-.628 1.753-1.237.216-.61.216-1.13.15-1.238-.06-.117-.234-.182-.492-.31z" fill="#E5F0FF"/></svg><svg fill="none" viewBox="0 0 54 54" id="include--zoom-icon" xmlns="http://www.w3.org/2000/svg"><path d="M23.625 43.875c11.184 0 20.25-9.066 20.25-20.25s-9.066-20.25-20.25-20.25-20.25 9.066-20.25 20.25 9.066 20.25 20.25 20.25zm15.188-5.062l11.812 11.812m-33.75-27h13.5m-6.75-6.75v13.5-13.5z" stroke="#fff" stroke-width="2.5" stroke-linecap="round" stroke-linejoin="round"/></svg></svg>