<svg width="150" height="150" fill="none" xmlns="http://www.w3.org/2000/svg"><path fill="#fff" d="M0 0h150v150H0z"/><path d="M97.81 58.125a35.281 35.281 0 004.522-3.791c2.936-2.937 4.899-6.548 5.529-10.17.692-3.971-.321-7.662-2.779-10.114-1.957-1.957-4.612-2.998-7.678-2.998-4.36 0-8.96 2.092-12.611 5.743-5.845 5.844-9.248 13.905-11.081 19.665-1.356-5.782-4.062-13.59-9.321-18.85-2.818-2.818-6.424-4.269-9.833-4.269-2.784 0-5.428.968-7.408 2.942-4.393 4.393-3.797 12.11 1.328 17.235 1.828 1.828 3.965 3.347 6.215 4.607H35.62v22.5h5.625V120h67.5V80.625h5.625v-22.5H97.803h.006zm-8.545-16.858c2.435-2.436 5.478-3.893 8.133-3.893.94 0 2.262.197 3.207 1.142 2.289 2.29 1.001 7.588-2.75 11.34-3.865 3.865-9.057 6.52-13.574 8.269h-4.455c1.631-5.057 4.573-11.992 9.439-16.858zM50.559 44.14c-.062-.804-.005-2.306 1.075-3.38a4.09 4.09 0 012.93-1.092c1.868 0 3.82.884 5.355 2.414 2.976 2.975 5.428 7.711 7.088 13.702l.129.484-.484-.13c-5.985-1.659-10.721-4.111-13.702-7.087a7.987 7.987 0 01-2.397-4.905l.006-.006zm18.816 70.234h-22.5V77.812h22.5v36.563zm0-39.375H41.25V63.75h28.125V75zm33.75 39.375h-22.5V77.812h22.5v36.563zM108.75 75H80.625V63.75h28.125V75z" fill="#C7C9D9"/></svg>