<svg width="20" height="20" fill="none" xmlns="http://www.w3.org/2000/svg"><path d="M15.833 3.333H15V1.667h-1.667v1.666H6.667V1.667H5v1.666h-.833A1.667 1.667 0 002.5 5v11.667a1.667 1.667 0 001.667 1.666h11.666a1.667 1.667 0 001.667-1.666V5a1.667 1.667 0 00-1.667-1.667zm0 13.334H4.167V8.333h11.666v8.334zm0-10H4.167V5h11.666v1.667zM10 9.167c1.667 0 2.5 2.016 1.325 3.2-1.183 1.183-3.2.341-3.2-1.325 0-1.042.833-1.875 1.875-1.875zm3.75 6.566v.1h-7.5v-.1c0-1.041 1.667-1.875 3.75-1.875s3.75.834 3.75 1.875z" fill="#1C1C28"/></svg>