<svg width="20" height="20" fill="none" xmlns="http://www.w3.org/2000/svg"><path d="M15 15.417c.692 0 1.25-.559 1.25-1.25 0-.692-.558-1.25-1.25-1.25a1.25 1.25 0 100 2.5zm1.25-7.5h-2.083V10h3.717L16.25 7.917zM5 15.417c.692 0 1.25-.559 1.25-1.25 0-.692-.558-1.25-1.25-1.25a1.25 1.25 0 100 2.5zm11.667-8.75l2.5 3.333v4.167H17.5c0 1.383-1.116 2.5-2.5 2.5a2.497 2.497 0 01-2.5-2.5h-5c0 1.383-1.117 2.5-2.5 2.5a2.497 2.497 0 01-2.5-2.5H.833V5A1.66 1.66 0 012.5 3.333h11.667v3.334h2.5zM2.5 5v7.5h.634a2.511 2.511 0 013.733 0H12.5V5h-10zm5.834.833L11.25 8.75l-2.916 2.917V9.583H4.167V7.917h4.167V5.833z" fill="#1C1C28"/></svg>