<svg width="20" height="20" fill="none" xmlns="http://www.w3.org/2000/svg"><path d="M17.926 6.974a17.739 17.739 0 00-1.702-1.948 17.74 17.74 0 00-1.948-1.702C13.27 2.585 12.78 2.5 12.5 2.5H5.312c-.86 0-1.562.701-1.562 1.563v14.375c0 .86.701 1.562 1.563 1.562h11.875c.86 0 1.562-.701 1.562-1.563V8.75c0-.28-.085-.769-.824-1.776zM15.34 5.91c.6.6 1.07 1.14 1.417 1.589H13.75V4.494c.448.347.99.817 1.588 1.417h.002zm2.16 12.528c0 .17-.142.312-.313.312H5.313A.316.316 0 015 18.437V4.063c0-.168.143-.312.313-.312H12.5v4.375a.625.625 0 00.625.625H17.5v9.688z" fill="#1C1C28"/><path d="M11.776.824C10.77.085 10.28 0 10 0H2.812C1.953 0 1.25.701 1.25 1.563v14.374c0 .755.538 1.387 1.25 1.532V1.562c0-.168.144-.312.313-.312h9.508a13.09 13.09 0 00-.546-.426h.001z" fill="#1C1C28"/></svg>