<svg width="20" height="20" fill="none" xmlns="http://www.w3.org/2000/svg"><path fill-rule="evenodd" clip-rule="evenodd" d="M14.192 7.058a.625.625 0 010 .885l-3.75 3.75a.624.624 0 01-.885 0L7.682 9.818a.626.626 0 11.885-.886L10 10.366l3.307-3.308a.625.625 0 01.885 0z" fill="#1C1C28"/><path fill-rule="evenodd" clip-rule="evenodd" d="M0 1.875a.625.625 0 01.625-.625H2.5a.625.625 0 01.606.474l.506 2.026h14.513a.625.625 0 01.614.74l-1.875 10a.626.626 0 01-.614.51H5a.625.625 0 01-.614-.51L2.513 4.509l-.5-2.009H.625A.625.625 0 010 1.875zM3.877 5l1.642 8.75H15.73L17.372 5H3.877zM6.25 15a2.5 2.5 0 100 5 2.5 2.5 0 000-5zM15 15a2.5 2.5 0 100 5 2.5 2.5 0 000-5zm-8.75 1.25a1.25 1.25 0 100 2.5 1.25 1.25 0 000-2.5zm8.75 0a1.25 1.25 0 100 2.5 1.25 1.25 0 000-2.5z" fill="#1C1C28"/></svg>