<svg width="20" height="20" fill="none" xmlns="http://www.w3.org/2000/svg"><path d="M17.778 8.333h-.556V5a.556.556 0 00-.556-.556H3.333a.555.555 0 01-.555-.455v-.2a.555.555 0 01.555-.456h13.1a.556.556 0 000-1.11h-13.1a1.667 1.667 0 00-1.667 1.666 1.71 1.71 0 000 .2v11.428a2.278 2.278 0 002.295 2.26h12.705a.555.555 0 00.556-.555V13.89h.556a.555.555 0 00.555-.556V8.89a.556.556 0 00-.555-.556zm-1.667 8.334H3.96a1.172 1.172 0 01-1.183-1.15V5.489c.18.052.368.075.555.067H16.11v2.777h-3.889a2.778 2.778 0 100 5.556h3.889v2.778zm1.111-3.89h-5a1.667 1.667 0 110-3.333h5v3.334z" fill="#1C1C28"/><path d="M12.784 11.944a.833.833 0 100-1.666.833.833 0 000 1.666z" fill="#1C1C28"/></svg>