<svg width="20" height="20" fill="none" xmlns="http://www.w3.org/2000/svg"><g clip-path="url(#clip0_2680_9803)" fill="#1C1C28"><path fill-rule="evenodd" clip-rule="evenodd" d="M17.5 3.75h-15A1.25 1.25 0 001.25 5v10a1.25 1.25 0 001.25 1.25h15A1.25 1.25 0 0018.75 15V5a1.25 1.25 0 00-1.25-1.25zM2.5 2.5A2.5 2.5 0 000 5v10a2.5 2.5 0 002.5 2.5h15A2.5 2.5 0 0020 15V5a2.5 2.5 0 00-2.5-2.5h-15z"/><path d="M5 11.25H3.75c-.69 0-1.25.56-1.25 1.25v1.25c0 .69.56 1.25 1.25 1.25H5c.69 0 1.25-.56 1.25-1.25V12.5c0-.69-.56-1.25-1.25-1.25zm-3.75-5h17.5v2.5H1.25v-2.5z"/></g><defs><clipPath id="clip0_2680_9803"><path fill="#fff" d="M0 0h20v20H0z"/></clipPath></defs></svg>